<svg xmlns="http://www.w3.org/2000/svg" width="22.676" height="16.761" viewBox="0 0 22.676 16.761">
  <defs>
    <style>
      .cls-1 {
        fill: #fff;
      }
    </style>
  </defs>
  <g id="Group_425" data-name="Group 425" transform="translate(-465 -230)">
    <path id="Path_957" data-name="Path 957" class="cls-1" d="M486.937,274.641h-21.2A.739.739,0,0,1,465,273.9V267h1.479v6.162H486.2V267h1.479v6.9A.739.739,0,0,1,486.937,274.641Z" transform="translate(0 -27.88)"/>
    <rect id="Rectangle_269" data-name="Rectangle 269" class="cls-1" width="2" height="10" transform="translate(475.176 230)"/>
    <path id="Path_958" data-name="Path 958" class="cls-1" d="M496.592,261.331a.737.737,0,0,1-.523-.217l-4.19-4.19,1.046-1.046,3.667,3.667,3.667-3.667,1.046,1.046-4.19,4.19A.736.736,0,0,1,496.592,261.331Z" transform="translate(-20.254 -19.5)"/>
  </g>
</svg>
