<svg id="Logo_silverman" data-name="Logo silverman" xmlns="http://www.w3.org/2000/svg" width="105.282" height="22.359" viewBox="0 0 105.282 22.359">
  <defs>
    <style>
      .cls-1 {
        fill: #28292a;
      }
    </style>
  </defs>
  <g id="Group_8" data-name="Group 8">
    <g id="Group_2" data-name="Group 2" transform="translate(23.473 3.017)">
      <g id="Group_1" data-name="Group 1" transform="translate(0 0.026)">
        <path id="Path_1" data-name="Path 1" class="cls-1" d="M569.388,352.868a3.9,3.9,0,0,1-3.746-3.97V347c1.115,0,1.673,0,2.786,0v1.9a.988.988,0,0,0,.959,1.021.919.919,0,0,0,.828-1.023v-.938c0-.98-.8-1.649-1.2-2.144-.791-.98-1.83-1.831-2.566-2.825a5.779,5.779,0,0,1-.908-2.712c-.016-.542-.025-.812-.042-1.352a3.941,3.941,0,0,1,3.848-3.984A3.833,3.833,0,0,1,573,338.918v1.888c-1.114,0-1.672,0-2.787,0v-1.889a.92.92,0,0,0-.828-1.02.987.987,0,0,0-.959,1.022v.753a3.551,3.551,0,0,0,.484,1.453,11.112,11.112,0,0,0,1.476,1.537,12.325,12.325,0,0,1,1.969,2.268,6.072,6.072,0,0,1,.737,2.589c0,.549.007.823.01,1.374A3.827,3.827,0,0,1,569.388,352.868Z" transform="translate(-565.5 -334.916)"/>
        <path id="Path_2" data-name="Path 2" class="cls-1" d="M606.675,334.913c.25,0,.374,0,.626,0v17.929l-.626,0c-.654,0-.982,0-1.637,0-.25,0-.375,0-.626,0V334.917c.251,0,.376,0,.626,0C605.693,334.916,606.02,334.915,606.675,334.913Z" transform="translate(-595.394 -334.896)"/>
        <path id="Path_3" data-name="Path 3" class="cls-1" d="M626.589,334.905h.628v14.98l3.262,0,.635,0v2.952l-.635,0q-2.763,0-5.526,0c-.248,0-.374,0-.624,0v-17.93c.25,0,.376,0,.624,0C625.609,334.906,625.937,334.907,626.589,334.905Z" transform="translate(-610.695 -334.89)"/>
        <path id="Path_4" data-name="Path 4" class="cls-1" d="M655.846,346.557q.705-5.574,1.413-11.143c.037-.215.054-.323.091-.536q1.5,0,3.01,0-1.448,8.967-2.9,17.929-1.614.006-3.23,0-1.4-8.962-2.8-17.925c1.162,0,1.744,0,2.907,0,.036.13.056.2.091.329Q655.139,340.882,655.846,346.557Z" transform="translate(-631.518 -334.868)"/>
        <path id="Path_5" data-name="Path 5" class="cls-1" d="M700.637,334.852h.636v2.962h-.636q-1.7,0-3.4,0v4.529h2.4v2.952c-.25,0-.377,0-.627,0-.707,0-1.06,0-1.769,0v4.537c1.133,0,2.264,0,3.4,0,.253,0,.38,0,.636,0v2.951c-.256,0-.383,0-.636,0l-5.656,0c-.25,0-.377,0-.625,0v-.65q0-8.312,0-16.631v-.647c.248,0,.375,0,.625,0Z" transform="translate(-664.492 -334.849)"/>
        <path id="Path_6" data-name="Path 6" class="cls-1" d="M730.925,352.774c-.251,0-.376,0-.628,0V334.845h2.264c.441,0,.664,0,1.11,0a4.2,4.2,0,0,1,3.04,1.288,4.374,4.374,0,0,1,1.263,3.1v2.682c-.018,1.131-1.205,2.611-1.19,2.912.015.335,1.185,1.851,1.19,2.908v3.383a3.308,3.308,0,0,0,.262,1.651h-2.889a1.8,1.8,0,0,1-.223-.762c-.026-.3-.042-.6-.05-.888v-3.385a1.387,1.387,0,0,0-.413-1.009,1.365,1.365,0,0,0-.991-.422c-.193,0-.291,0-.485,0v6.469c-.25,0-.375,0-.625,0Zm2.261-9.421c.235,0,.353,0,.585,0a1.331,1.331,0,0,0,.99-.422,1.394,1.394,0,0,0,.414-1.013v-2.682a1.378,1.378,0,0,0-.414-1.011,1.351,1.351,0,0,0-.99-.424c-.233,0-.351,0-.585,0Z" transform="translate(-692.104 -334.842)"/>
      </g>
      <path id="Path_7" data-name="Path 7" class="cls-1" d="M834.257,349.912c-.18.926-.362,1.844-.537,2.774-1.187,0-1.78,0-2.968,0q1.51-8.97,3.02-17.933,1.892,0,3.786,0,1.513,8.978,3.018,17.951c-1.187,0-1.779,0-2.966,0-.174-.929-.357-1.87-.537-2.8Zm1.4-11.37q-.489,4.272-.977,8.543c.787,0,1.18,0,1.968,0Q836.156,342.814,835.657,338.542Z" transform="translate(-769.279 -334.747)"/>
      <path id="Path_8" data-name="Path 8" class="cls-1" d="M877.5,334.736q1.94,0,3.88,0c.885,4.082,2.828,12.223,2.828,12.223.024,0-.1-8.155-.1-12.226H887V352.66l-3.978,0c-.918-3.932-1.861-7.859-2.634-11.808v11.811H877.5Q877.5,343.7,877.5,334.736Z" transform="translate(-805.191 -334.732)"/>
      <path id="Path_9" data-name="Path 9" class="cls-1" d="M778.034,334.747c-.885,4.082-2.828,12.223-2.828,12.223s-1.943-8.141-2.828-12.223q-1.942,0-3.88,0,0,8.964,0,17.93h2.891V340.867c.773,3.95,1.716,7.876,2.634,11.808,1.322,0-.116,0,1.183,0s-.139,0,1.183,0c.918-3.932,1.861-7.859,2.634-11.808v11.811h2.891q0-8.964,0-17.93Q779.973,334.751,778.034,334.747Z" transform="translate(-721.452 -334.743)"/>
    </g>
    <g id="Group_7" data-name="Group 7">
      <path id="Path_10" data-name="Path 10" class="cls-1" d="M480.68,328.969q-4.084,5.365-8.169,10.73-4.07-4.42-8.147-8.838c-.057.006-.086.008-.146.017v18.784q8.307-.961,16.608-1.926c0-.005,0-.006,0-.012V328.95C480.769,328.959,480.741,328.963,480.68,328.969Z" transform="translate(-464.218 -327.303)"/>
      <g id="Group_6" data-name="Group 6" transform="translate(5.437)">
        <g id="Group_3" data-name="Group 3" transform="translate(2.245 5.306)">
          <path id="Path_11" data-name="Path 11" class="cls-1" d="M498.43,344.533a.554.554,0,0,1,.184.427.728.728,0,0,1-.624.71.524.524,0,0,1-.441-.137.551.551,0,0,1-.181-.43.693.693,0,0,1,.181-.468.658.658,0,0,1,.441-.238A.545.545,0,0,1,498.43,344.533Z" transform="translate(-497.367 -344.394)"/>
        </g>
        <g id="Group_4" data-name="Group 4" transform="translate(2.245 2.885)">
          <path id="Path_12" data-name="Path 12" class="cls-1" d="M498.43,334.315a.546.546,0,0,1,.184.427.686.686,0,0,1-.184.47.677.677,0,0,1-.44.238.531.531,0,0,1-.441-.134.561.561,0,0,1-.181-.432.7.7,0,0,1,.181-.468.657.657,0,0,1,.441-.237A.537.537,0,0,1,498.43,334.315Z" transform="translate(-497.367 -334.175)"/>
        </g>
        <path id="Path_13" data-name="Path 13" class="cls-1" d="M493.364,322.007q-1.408,1.148-2.819,2.293-1.409-.818-2.814-1.639c-.02,0-.03,0-.051.006v5.11c.02,0,.03,0,.051-.006q1.409-1.149,2.823-2.295,1.4.822,2.811,1.641a.328.328,0,0,0,.051,0V322A.361.361,0,0,1,493.364,322.007Z" transform="translate(-487.68 -322)"/>
        <g id="Group_5" data-name="Group 5" transform="translate(2.245 7.687)">
          <path id="Path_14" data-name="Path 14" class="cls-1" d="M498.43,354.58a.547.547,0,0,1,.184.426.7.7,0,0,1-.184.474.687.687,0,0,1-.44.237.529.529,0,0,1-.441-.136.557.557,0,0,1-.181-.43.693.693,0,0,1,.181-.47.655.655,0,0,1,.441-.237A.545.545,0,0,1,498.43,354.58Z" transform="translate(-497.367 -354.44)"/>
        </g>
      </g>
    </g>
  </g>
</svg>
