<svg xmlns="http://www.w3.org/2000/svg" width="1283.07" height="848.545" viewBox="0 0 1283.07 848.545">
    <defs>
        <style>
            .cls-1,.cls-2{fill:#1390dd;opacity:.05}.cls-2{fill:#4eb4a9}
        </style>
    </defs>
    <g id="Group_257" data-name="Group 257" transform="translate(530.04 -5468.424)">
        <path id="Path_588" d="M-11722.592 3242.424s109.666 115.8 254.974 125.456 205.623-89.267 356.414-82.029 334.48 31.364 378.348 212.309 150.79 139.931 180.948 250.911 27.417 311.226-233.039 337.765-364.64-79.616-512.688-178.533-482.53-113.392-518.172-96.5 93.215-569.379 93.215-569.379z" class="cls-1" data-name="Path 588" transform="translate(11292 2226)"/>
        <path id="Path_589" d="M47.916 74.9S98.594-35.9 309.482 6.454 688.2 70.271 826.27 87.381s295.841 153.564 244.086 328.99S693.547 725.783 463.705 681.31-16.969 386.9-4.04 262.3 47.916 74.9 47.916 74.9z" class="cls-2" data-name="Path 589" transform="rotate(-173 509.044 3126.574)"/>
    </g>
</svg>
