<svg xmlns="http://www.w3.org/2000/svg" width="78.296" height="80.809" viewBox="0 0 78.296 80.809">
    <defs>
        <style>
            .cls-1{fill:#212a34}.cls-2{fill:#d2d7db}.cls-3{fill:#2b2b2b}
        </style>
    </defs>
    <g id="Group_251" data-name="Group 251" transform="translate(-1535 -772.703)">
        <path id="Path_621" d="M1549.565 806.433c.732-1.572 1.931-1.572 2.663 0l2.545 5.462a6.34 6.34 0 0 0 4.462 3.241l5.981.732c1.722.211 2.092 1.351.823 2.534l-4.408 4.108a6.342 6.342 0 0 0-1.7 5.245l1.152 5.915c.332 1.7-.638 2.407-2.155 1.565l-5.269-2.923a6.34 6.34 0 0 0-5.515 0l-5.269 2.923c-1.517.841-2.487.137-2.155-1.565l1.152-5.915a6.342 6.342 0 0 0-1.7-5.245l-4.408-4.108c-1.268-1.182-.9-2.322.823-2.534l5.981-.732a6.341 6.341 0 0 0 4.462-3.241z" class="cls-1" data-name="Path 621" transform="translate(0 -17.105)"/>
        <g id="Group_250" data-name="Group 250" transform="translate(1562.652 774.798)">
            <path id="Path_622" d="M1602.076 779.976c.2-.987.877-1.15 1.5-.361l2.178 2.741a3.685 3.685 0 0 0 2.96 1.226l3.478-.4c1-.114 1.365.479.809 1.32l-1.933 2.918a3.683 3.683 0 0 0-.252 3.194l1.453 3.186c.418.917-.034 1.446-1.005 1.176l-3.373-.937a3.684 3.684 0 0 0-3.115.748l-2.58 2.365c-.743.681-1.386.415-1.43-.592l-.151-3.5a3.684 3.684 0 0 0-1.674-2.732l-3.047-1.723c-.877-.5-.822-1.19.122-1.543l3.279-1.225a3.686 3.686 0 0 0 2.081-2.437z" class="cls-2" data-name="Path 622" transform="translate(-1594.325 -778.167)"/>
            <path id="Path_623" d="M1600.384 797.43a1.507 1.507 0 0 1-.575-.111 1.821 1.821 0 0 1-1.037-1.764l-.151-3.5a2.745 2.745 0 0 0-1.193-1.947l-3.047-1.723a1.7 1.7 0 0 1 .256-3.258l3.279-1.225a2.745 2.745 0 0 0 1.483-1.736l.7-3.431a1.7 1.7 0 0 1 3.178-.763l2.178 2.74a2.751 2.751 0 0 0 2.109.874l3.479-.4a1.7 1.7 0 0 1 1.707 2.786l-1.933 2.919a2.748 2.748 0 0 0-.179 2.276l1.453 3.185a1.7 1.7 0 0 1-2.123 2.485l-3.373-.937a2.752 2.752 0 0 0-2.22.533l-2.58 2.366a2.071 2.071 0 0 1-1.411.631zm-4.892-10.594l2.869 1.622a4.59 4.59 0 0 1 2.155 3.517l.143 3.293 2.429-2.227a4.588 4.588 0 0 1 4.011-.963l3.176.881-1.368-3a4.592 4.592 0 0 1 .324-4.112l1.819-2.747-3.274.374a4.61 4.61 0 0 1-3.81-1.579l-2.051-2.58-.656 3.23a4.591 4.591 0 0 1-2.679 3.136z" class="cls-3" data-name="Path 623" transform="translate(-1593.274 -777.118)"/>
        </g>
        <path id="Path_624" d="M1657.486 773.243c.422-.756 1.019-.712 1.325.1l1.066 2.812a3.164 3.164 0 0 0 2.1 1.777l2.949.584c.849.168.992.749.317 1.291l-2.344 1.883a3.163 3.163 0 0 0-1.04 2.548l.356 2.986c.1.859-.406 1.174-1.129.7l-2.515-1.648a3.165 3.165 0 0 0-2.745-.2l-2.729 1.262c-.786.363-1.242-.023-1.015-.858l.79-2.9a3.164 3.164 0 0 0-.656-2.672l-2.043-2.206c-.588-.635-.362-1.189.5-1.23l3-.146a3.164 3.164 0 0 0 2.34-1.45z" class="cls-1" data-name="Path 624" transform="translate(-60.35)"/>
        <path id="Rectangle_185" d="M0 0h14.71v23.251H0z" class="cls-2" data-name="Rectangle 185" transform="translate(1541.643 830.261)"/>
        <path id="Rectangle_186" d="M0 0h14.71v31.318H0z" class="cls-1" data-name="Rectangle 186" transform="translate(1560.624 822.194)"/>
        <path id="Rectangle_187" d="M0 0h14.71v53.621H0z" class="cls-1" data-name="Rectangle 187" transform="translate(1579.605 799.892)"/>
        <path id="Rectangle_188" d="M0 0h14.71v46.977H0z" class="cls-2" data-name="Rectangle 188" transform="translate(1598.586 806.535)"/>
    </g>
</svg>
