<svg xmlns="http://www.w3.org/2000/svg" width="240.038" height="237.92" viewBox="0 0 240.038 237.92">
    <defs>
        <style>
            .cls-1{fill:#c4c4c4}.cls-2{fill:#eaeaea}.cls-3{fill:#4d5356}.cls-4{fill:#dbdcdd}.cls-5{fill:#f1f1f2}.cls-10,.cls-6,.cls-8,.cls-9{fill:#808184}.cls-6{font-size:8px;font-family:THSarabunPSK,TH SarabunPSK}.cls-7{font-size:6px}.cls-7,.cls-8,.cls-9{font-family:EffraMedium-Regular,Effra}.cls-8{font-size:5px}.cls-9{font-size:29px}.cls-11{fill:#999}
        </style>
    </defs>
    <g id="Group_215" data-name="Group 215" transform="translate(-87.166 -89.203)">
        <g id="Group_214" data-name="Group 214" transform="translate(87.166 89.203)">
            <g id="Group_210" data-name="Group 210">
                <rect id="Rectangle_108" width="124.489" height="16.94" class="cls-1" data-name="Rectangle 108" rx="8.417" transform="translate(115.549 77.57)"/>
                <rect id="Rectangle_109" width="124.489" height="16.94" class="cls-2" data-name="Rectangle 109" rx="8.417" transform="translate(112.161 77.57)"/>
                <rect id="Rectangle_110" width="111.449" height="5.032" class="cls-3" data-name="Rectangle 110" rx="2.5" transform="translate(114.677 83.524)"/>
                <path id="Path_553" d="M320.821 89.2c17.275 0 21.971 15.766 21.971 34.55v31.363c0 9.392 4.7 20.126 15.43 20.126H254.908V89.2z" class="cls-4" data-name="Path 553" transform="translate(-136.164 -89.203)"/>
                <path id="Path_554" d="M87.166 327.124l8.283-9.308 8.283 9.308 8.283-9.308 8.284 9.308 8.283-9.308 8.283 9.308 8.283-9.308 8.284 9.308 8.283-9.308 8.285 9.308 8.284-9.308 8.283 9.308 8.283-9.308 8.283 9.308 8.284-9.308 8.283 9.308 8.283-9.308 8.284 9.308V156.29c0-34.885 2.684-67.087 35.556-67.087h-149.1c-32.873 0-35.556 32.2-35.556 67.087z" class="cls-5" data-name="Path 554" transform="translate(-87.166 -89.203)"/>
            </g>
            <text id="_761_30" class="cls-6" data-name="฿761,30" transform="translate(131.312 176.991)">
                <tspan x="-21.312" y="0">฿</tspan><tspan y="0" class="cls-7">761,30</tspan>
            </text>
            <text id="Total" class="cls-8" transform="translate(14.15 176.406)">
                <tspan x="0" y="0">Total</tspan>
            </text>
            <g id="Group_213" data-name="Group 213" transform="translate(12.163 33.696)">
                <text id="INVOICE" class="cls-9" transform="translate(0 28)">
                    <tspan x="0" y="0">INVOICE</tspan>
                </text>
                <path id="Rectangle_111" d="M0 0h120.802v.677H0z" class="cls-10" data-name="Rectangle 111" transform="translate(0 38.346)"/>
                <g id="Group_211" data-name="Group 211" transform="translate(1.988 46.25)">
                    <circle id="Ellipse_24" cx=".903" cy=".903" r=".903" class="cls-10" data-name="Ellipse 24"/>
                    <circle id="Ellipse_25" cx=".903" cy=".903" r=".903" class="cls-10" data-name="Ellipse 25" transform="translate(4.793)"/>
                    <path id="Path_555" d="M122.5 203.041a.9.9 0 1 1-.9-.9.9.9 0 0 1 .9.9z" class="cls-10" data-name="Path 555" transform="translate(-111.11 -202.138)"/>
                    <circle id="Ellipse_26" cx=".903" cy=".903" r=".903" class="cls-10" data-name="Ellipse 26" transform="translate(14.378)"/>
                    <path id="Path_556" d="M136.042 203.041a.9.9 0 1 1-.9-.9.9.9 0 0 1 .9.9z" class="cls-10" data-name="Path 556" transform="translate(-115.065 -202.138)"/>
                    <circle id="Ellipse_27" cx=".903" cy=".903" r=".903" class="cls-10" data-name="Ellipse 27" transform="translate(23.963)"/>
                    <path id="Path_557" d="M149.582 203.041a.9.9 0 1 1-.9-.9.9.9 0 0 1 .9.9z" class="cls-10" data-name="Path 557" transform="translate(-119.02 -202.138)"/>
                    <circle id="Ellipse_28" cx=".903" cy=".903" r=".903" class="cls-10" data-name="Ellipse 28" transform="translate(33.548)"/>
                    <circle id="Ellipse_29" cx=".903" cy=".903" r=".903" class="cls-10" data-name="Ellipse 29" transform="translate(38.34)"/>
                    <circle id="Ellipse_30" cx=".903" cy=".903" r=".903" class="cls-10" data-name="Ellipse 30" transform="translate(43.133)"/>
                    <circle id="Ellipse_31" cx=".903" cy=".903" r=".903" class="cls-10" data-name="Ellipse 31" transform="translate(47.925)"/>
                    <circle id="Ellipse_32" cx=".903" cy=".903" r=".903" class="cls-10" data-name="Ellipse 32" transform="translate(52.718)"/>
                    <circle id="Ellipse_33" cx=".903" cy=".903" r=".903" class="cls-10" data-name="Ellipse 33" transform="translate(57.51)"/>
                    <circle id="Ellipse_34" cx=".903" cy=".903" r=".903" class="cls-10" data-name="Ellipse 34" transform="translate(62.303)"/>
                    <circle id="Ellipse_35" cx=".903" cy=".903" r=".903" class="cls-10" data-name="Ellipse 35" transform="translate(67.095)"/>
                    <circle id="Ellipse_36" cx=".903" cy=".903" r=".903" class="cls-10" data-name="Ellipse 36" transform="translate(71.888)"/>
                    <circle id="Ellipse_37" cx=".903" cy=".903" r=".903" class="cls-10" data-name="Ellipse 37" transform="translate(76.68)"/>
                    <circle id="Ellipse_38" cx=".903" cy=".903" r=".903" class="cls-10" data-name="Ellipse 38" transform="translate(81.473)"/>
                    <circle id="Ellipse_39" cx=".903" cy=".903" r=".903" class="cls-10" data-name="Ellipse 39" transform="translate(86.265)"/>
                    <path id="Path_558" d="M237.593 203.041a.9.9 0 1 1-.9-.9.9.9 0 0 1 .9.9z" class="cls-10" data-name="Path 558" transform="translate(-144.728 -202.138)"/>
                    <circle id="Ellipse_40" cx=".903" cy=".903" r=".903" class="cls-10" data-name="Ellipse 40" transform="translate(95.85)"/>
                    <path id="Path_559" d="M251.133 203.041a.9.9 0 1 1-.9-.9.9.9 0 0 1 .9.9z" class="cls-10" data-name="Path 559" transform="translate(-148.683 -202.138)"/>
                    <circle id="Ellipse_41" cx=".903" cy=".903" r=".903" class="cls-10" data-name="Ellipse 41" transform="translate(105.435)"/>
                    <circle id="Ellipse_42" cx=".903" cy=".903" r=".903" class="cls-10" data-name="Ellipse 42" transform="translate(110.228)"/>
                    <circle id="Ellipse_43" cx=".903" cy=".903" r=".903" class="cls-10" data-name="Ellipse 43" transform="translate(115.02)"/>
                </g>
                <g id="Group_212" data-name="Group 212" transform="translate(1.988 131.166)">
                    <circle id="Ellipse_44" cx=".903" cy=".903" r=".903" class="cls-10" data-name="Ellipse 44"/>
                    <circle id="Ellipse_45" cx=".903" cy=".903" r=".903" class="cls-10" data-name="Ellipse 45" transform="translate(4.793)"/>
                    <path id="Path_560" d="M122.5 323a.9.9 0 1 1-.9-.9.9.9 0 0 1 .9.9z" class="cls-10" data-name="Path 560" transform="translate(-111.11 -322.092)"/>
                    <circle id="Ellipse_46" cx=".903" cy=".903" r=".903" class="cls-10" data-name="Ellipse 46" transform="translate(14.378)"/>
                    <path id="Path_561" d="M136.042 323a.9.9 0 1 1-.9-.9.9.9 0 0 1 .9.9z" class="cls-10" data-name="Path 561" transform="translate(-115.065 -322.092)"/>
                    <circle id="Ellipse_47" cx=".903" cy=".903" r=".903" class="cls-10" data-name="Ellipse 47" transform="translate(23.963)"/>
                    <path id="Path_562" d="M149.582 323a.9.9 0 1 1-.9-.9.9.9 0 0 1 .9.9z" class="cls-10" data-name="Path 562" transform="translate(-119.02 -322.092)"/>
                    <circle id="Ellipse_48" cx=".903" cy=".903" r=".903" class="cls-10" data-name="Ellipse 48" transform="translate(33.548)"/>
                    <circle id="Ellipse_49" cx=".903" cy=".903" r=".903" class="cls-10" data-name="Ellipse 49" transform="translate(38.34)"/>
                    <circle id="Ellipse_50" cx=".903" cy=".903" r=".903" class="cls-10" data-name="Ellipse 50" transform="translate(43.133)"/>
                    <circle id="Ellipse_51" cx=".903" cy=".903" r=".903" class="cls-10" data-name="Ellipse 51" transform="translate(47.925)"/>
                    <circle id="Ellipse_52" cx=".903" cy=".903" r=".903" class="cls-10" data-name="Ellipse 52" transform="translate(52.718)"/>
                    <circle id="Ellipse_53" cx=".903" cy=".903" r=".903" class="cls-10" data-name="Ellipse 53" transform="translate(57.51)"/>
                    <circle id="Ellipse_54" cx=".903" cy=".903" r=".903" class="cls-10" data-name="Ellipse 54" transform="translate(62.303)"/>
                    <circle id="Ellipse_55" cx=".903" cy=".903" r=".903" class="cls-10" data-name="Ellipse 55" transform="translate(67.095)"/>
                    <circle id="Ellipse_56" cx=".903" cy=".903" r=".903" class="cls-10" data-name="Ellipse 56" transform="translate(71.888)"/>
                    <circle id="Ellipse_57" cx=".903" cy=".903" r=".903" class="cls-10" data-name="Ellipse 57" transform="translate(76.68)"/>
                    <circle id="Ellipse_58" cx=".903" cy=".903" r=".903" class="cls-10" data-name="Ellipse 58" transform="translate(81.473)"/>
                    <circle id="Ellipse_59" cx=".903" cy=".903" r=".903" class="cls-10" data-name="Ellipse 59" transform="translate(86.265)"/>
                    <path id="Path_563" d="M237.593 323a.9.9 0 1 1-.9-.9.9.9 0 0 1 .9.9z" class="cls-10" data-name="Path 563" transform="translate(-144.728 -322.092)"/>
                    <circle id="Ellipse_60" cx=".903" cy=".903" r=".903" class="cls-10" data-name="Ellipse 60" transform="translate(95.85)"/>
                    <path id="Path_564" d="M251.133 323a.9.9 0 1 1-.9-.9.9.9 0 0 1 .9.9z" class="cls-10" data-name="Path 564" transform="translate(-148.683 -322.092)"/>
                    <circle id="Ellipse_61" cx=".903" cy=".903" r=".903" class="cls-10" data-name="Ellipse 61" transform="translate(105.435)"/>
                    <circle id="Ellipse_62" cx=".903" cy=".903" r=".903" class="cls-10" data-name="Ellipse 62" transform="translate(110.228)"/>
                    <circle id="Ellipse_63" cx=".903" cy=".903" r=".903" class="cls-10" data-name="Ellipse 63" transform="translate(115.02)"/>
                </g>
                <text id="Date_:_30_08_2019" class="cls-8" data-name="Date : 30/08/2019" transform="translate(67.037 59.037)">
                    <tspan x="0" y="0">Date : 30/08/2019</tspan>
                </text>
            </g>
        </g>
        <path id="Rectangle_112" d="M0 0h55.571v2.909H0z" class="cls-11" data-name="Rectangle 112" transform="translate(102.219 191.659)"/>
        <path id="Rectangle_113" d="M0 0h22.509v2.909H0z" class="cls-11" data-name="Rectangle 113" transform="translate(194.665 191.659)"/>
        <path id="Rectangle_114" d="M0 0h55.571v2.909H0z" class="cls-11" data-name="Rectangle 114" transform="translate(102.219 200.123)"/>
        <path id="Rectangle_115" d="M0 0h22.509v2.909H0z" class="cls-11" data-name="Rectangle 115" transform="translate(194.665 200.123)"/>
        <path id="Rectangle_116" d="M0 0h48.355v2.909H0z" class="cls-11" data-name="Rectangle 116" transform="translate(102.219 208.587)"/>
        <path id="Rectangle_117" d="M0 0h22.509v2.909H0z" class="cls-11" data-name="Rectangle 117" transform="translate(194.665 208.587)"/>
        <path id="Rectangle_118" d="M0 0h55.571v2.909H0z" class="cls-11" data-name="Rectangle 118" transform="translate(102.219 217.051)"/>
        <path id="Rectangle_119" d="M0 0h22.509v2.909H0z" class="cls-11" data-name="Rectangle 119" transform="translate(194.665 217.051)"/>
        <path id="Rectangle_120" d="M0 0h46.324v2.909H0z" class="cls-11" data-name="Rectangle 120" transform="translate(102.219 225.515)"/>
        <path id="Rectangle_121" d="M0 0h22.509v2.909H0z" class="cls-11" data-name="Rectangle 121" transform="translate(194.665 225.515)"/>
        <path id="Rectangle_122" d="M0 0h55.571v2.909H0z" class="cls-11" data-name="Rectangle 122" transform="translate(102.219 233.979)"/>
        <path id="Rectangle_123" d="M0 0h22.509v2.909H0z" class="cls-11" data-name="Rectangle 123" transform="translate(194.665 233.979)"/>
    </g>
</svg>
