<svg xmlns="http://www.w3.org/2000/svg" id="TYPE_A" width="25.575" height="24.368" data-name="TYPE A" viewBox="0 0 25.575 24.368">
    <defs>
        <style>
            .cls-1{fill:#fff}.cls-2{fill:#28292a}
        </style>
    </defs>
    <g id="Group_152" data-name="Group 152">
        <path id="Path_426" d="M280.547 303.659c0-5.722-5.736-10.377-12.787-10.377s-12.787 4.655-12.787 10.377c0 5.129 4.549 9.426 10.694 10.238.417.09.983.275 1.127.631a2.629 2.629 0 0 1 .041 1.156l-.183 1.095c-.056.323-.257 1.264 1.108.689s7.364-4.336 10.047-7.424a9.232 9.232 0 0 0 2.741-6.384" class="cls-1" data-name="Path 426" transform="translate(-254.972 -293.282)"/>
        <g id="Group_151" data-name="Group 151" transform="translate(4.195 7.612)">
            <path id="Path_427" d="M287.016 319.29h-.9a.249.249 0 0 0-.249.249v5.572a.249.249 0 0 0 .249.249h.9a.249.249 0 0 0 .249-.249v-5.572a.249.249 0 0 0-.249-.249" class="cls-2" data-name="Path 427" transform="translate(-281.022 -319.29)"/>
            <path id="Path_428" d="M298.669 319.29h-.9a.249.249 0 0 0-.249.249v3.31l-2.553-3.448a.282.282 0 0 0-.019-.025l-.015-.015-.013-.011-.006-.005-.013-.009h-.008l-.013-.008h-.008l-.014-.006h-.008l-.015-.005H293.869a.249.249 0 0 0-.249.249v5.572a.249.249 0 0 0 .249.249h.9a.249.249 0 0 0 .249-.249V321.8l2.557 3.453a.246.246 0 0 0 .063.061l.015.009h.007l.012.006.012.005h.007l.017.005a.24.24 0 0 0 .064.008h.9a.249.249 0 0 0 .249-.249v-5.572a.249.249 0 0 0-.249-.249" class="cls-2" data-name="Path 428" transform="translate(-286.501 -319.29)"/>
            <path id="Path_429" d="M273.137 323.964H270.7v-4.425a.249.249 0 0 0-.249-.249h-.9a.249.249 0 0 0-.249.249v5.571a.247.247 0 0 0 .07.172.247.247 0 0 0 .172.069h3.583a.249.249 0 0 0 .249-.249v-.9a.249.249 0 0 0-.249-.249" class="cls-2" data-name="Path 429" transform="translate(-269.305 -319.29)"/>
            <path id="Path_430" d="M318.542 320.685a.249.249 0 0 0 .249-.249v-.9a.249.249 0 0 0-.249-.249h-3.583a.248.248 0 0 0-.173.07.248.248 0 0 0-.069.172v5.571a.248.248 0 0 0 .07.172.247.247 0 0 0 .172.07h3.583a.249.249 0 0 0 .249-.249v-.9a.249.249 0 0 0-.249-.249h-2.437v-.942h2.437a.249.249 0 0 0 .249-.249v-.9a.249.249 0 0 0-.249-.249h-2.437v-.942z" class="cls-2" data-name="Path 430" transform="translate(-301.421 -319.29)"/>
        </g>
    </g>
</svg>
