<svg xmlns="http://www.w3.org/2000/svg" width="15" height="23.898" viewBox="0 0 15 23.898">
    <defs>
        <style>
            .cls-1{fill:#2b2b2b}
        </style>
    </defs>
    <path id="Path_423" d="M326.568 305.5h-8.136a3.436 3.436 0 0 0-3.432 3.432v17.034a3.436 3.436 0 0 0 3.432 3.432h8.136a3.436 3.436 0 0 0 3.432-3.432v-17.034a3.436 3.436 0 0 0-3.432-3.432zm-8.136 1.271h8.136a2.157 2.157 0 0 1 1.671.792h-11.478a2.157 2.157 0 0 1 1.671-.792zm8.136 21.356h-8.136a2.162 2.162 0 0 1-2.153-2h12.442a2.162 2.162 0 0 1-2.153 2zm2.161-3.275h-12.458v-15.92-.1h12.448v.1zm-6.864 2.894h1.271a.636.636 0 0 0 0-1.271h-1.271a.636.636 0 1 0 0 1.271z" class="cls-1" data-name="Path 423" transform="translate(-315 -305.5)"/>
</svg>
