<?xml version="1.0" standalone="no"?>
<!DOCTYPE svg PUBLIC "-//W3C//DTD SVG 20010904//EN"
 "http://www.w3.org/TR/2001/REC-SVG-20010904/DTD/svg10.dtd">
<svg version="1.0" xmlns="http://www.w3.org/2000/svg"
 width="1000.000000pt" height="1000.000000pt" viewBox="0 0 1000.000000 1000.000000"
 preserveAspectRatio="xMidYMid meet">
<metadata>
Created by potrace 1.11, written by Peter Selinger 2001-2013
</metadata>
<g transform="translate(0.000000,1000.000000) scale(0.100000,-0.100000)"
fill="#000000" stroke="none">
<path d="M6089 9614 c-74 -58 -150 -119 -169 -134 -36 -29 -554 -441 -787
-626 l-132 -104 -33 18 c-18 11 -89 51 -157 91 -69 39 -126 71 -128 71 -2 0
-20 10 -41 23 -20 13 -62 37 -92 54 -30 16 -214 121 -407 231 -194 111 -359
202 -366 202 -12 0 -14 -178 -14 -1075 0 -592 3 -1078 8 -1081 5 -3 14 0 21 6
7 5 38 30 68 54 30 24 192 152 360 285 168 133 320 254 339 269 19 15 73 57
119 95 47 37 88 67 91 67 4 0 22 -16 41 -35 87 -90 264 -80 363 22 20 21 43
46 50 56 12 17 50 -3 497 -259 267 -153 494 -279 505 -281 20 -4 20 1 18 1059
-2 1209 -1 1098 -11 1098 -5 0 -69 -48 -143 -106z"/>
<path d="M8558 9020 c-26 -5 -57 -36 -128 -130 -14 -18 -124 -159 -244 -314
-121 -154 -261 -335 -313 -401 -51 -66 -96 -124 -100 -130 -5 -5 -31 -39 -58
-75 -28 -36 -52 -67 -55 -70 -6 -6 -116 -146 -648 -829 -199 -256 -368 -473
-375 -481 -20 -25 -460 -589 -487 -625 -14 -18 -182 -235 -375 -482 -192 -246
-416 -533 -498 -638 -81 -104 -157 -201 -168 -215 -11 -14 -39 -51 -62 -82
-23 -31 -45 -57 -49 -57 -9 -1 -20 10 -178 179 -69 73 -141 150 -160 170 -19
20 -91 97 -160 170 -137 145 -150 159 -356 376 -141 150 -240 255 -309 329
-21 22 -100 105 -175 185 -76 80 -152 161 -170 180 -18 19 -67 71 -109 115
-100 106 -339 359 -386 410 -56 60 -167 178 -269 286 -50 52 -122 129 -161
170 -38 41 -136 145 -216 230 -81 84 -161 170 -179 189 -18 19 -94 100 -170
180 -76 80 -152 161 -170 180 -38 42 -305 324 -338 358 -13 14 -29 21 -38 18
-9 -3 -22 -6 -30 -6 -12 0 -14 -550 -14 -3971 l0 -3970 33 5 c17 3 64 8 102
11 39 3 77 8 85 10 8 3 42 7 75 10 106 10 238 25 264 30 9 1 50 6 91 10 41 3
89 9 105 11 17 3 48 7 70 9 38 3 96 9 185 20 19 2 60 7 90 10 30 3 71 7 90 10
19 2 58 7 85 10 28 3 106 12 175 20 69 8 150 17 180 20 30 3 71 7 90 10 19 3
58 7 85 10 28 3 68 7 90 10 22 3 63 7 90 10 28 4 66 8 85 11 19 2 58 6 85 9
28 2 66 6 85 9 19 3 121 15 225 26 226 25 257 28 355 40 41 5 100 12 130 15
30 3 71 8 90 10 19 2 60 7 90 10 30 3 71 8 90 10 19 2 60 7 90 10 30 4 66 8
80 10 14 2 57 7 95 11 39 3 77 8 85 9 8 2 49 6 90 10 41 3 82 8 90 10 8 2 49
7 90 10 41 4 83 9 93 11 10 2 48 6 85 9 37 3 74 8 82 10 8 2 44 7 80 10 36 3
81 8 100 10 102 12 147 17 170 20 14 2 54 7 90 10 36 4 72 9 80 10 8 1 51 6
95 10 44 4 82 8 85 10 3 2 43 6 90 10 47 4 93 9 103 11 10 2 46 6 80 9 34 4
73 8 87 10 38 5 129 15 185 21 28 3 61 7 75 9 14 2 52 6 85 9 33 4 76 8 95 11
19 3 55 7 80 10 25 2 63 7 85 9 22 3 67 8 100 11 33 3 71 8 85 10 14 2 52 6
85 10 33 3 94 10 135 15 41 5 107 12 145 16 39 3 77 7 85 9 9 2 43 6 75 10 33
3 74 8 90 10 17 2 57 6 90 10 33 4 78 9 100 12 22 2 54 6 70 7 76 8 171 19
185 21 8 2 50 6 93 10 45 4 77 12 78 19 4 48 3 7899 -1 7913 -4 14 -12 17 -32
13z"/>
<path d="M4960 7470 c-175 -49 -276 -255 -199 -405 98 -192 386 -156 485 60
54 117 16 254 -88 318 -37 23 -61 30 -110 32 -35 1 -74 -1 -88 -5z"/>
<path d="M4950 6461 c-149 -46 -245 -213 -207 -362 16 -65 96 -142 164 -158
128 -31 273 41 335 164 25 51 34 147 18 204 -15 56 -89 132 -146 149 -45 13
-125 15 -164 3z"/>
</g>
</svg>
