<svg xmlns="http://www.w3.org/2000/svg" xmlns:xlink="http://www.w3.org/1999/xlink" width="654" height="426" viewBox="0 0 654 426">
  <defs>
    <style>
      .cls-1, .cls-3 {
        fill: #fff;
      }

      .cls-2, .cls-4 {
        fill: #28292a;
      }

      .cls-2 {
        font-size: 14px;
      }

      .cls-2, .cls-4, .cls-5 {
        font-family: Prompt-Medium, Prompt;
        font-weight: 500;
      }

      .cls-3 {
        stroke: #b2b2b2;
      }

      .cls-4 {
        font-size: 16px;
      }

      .cls-5, .cls-6 {
        fill: #1390dd;
      }

      .cls-5 {
        font-size: 18px;
      }

      .cls-7 {
        stroke: none;
      }

      .cls-8 {
        fill: none;
      }

      .cls-9 {
        filter: url(#Rectangle_527-2);
      }

      .cls-10 {
        filter: url(#Rectangle_527);
      }
    </style>
    <filter id="Rectangle_527" x="0" y="39" width="286" height="348" filterUnits="userSpaceOnUse">
      <feOffset dy="10" input="SourceAlpha"/>
      <feGaussianBlur stdDeviation="6.5" result="blur"/>
      <feFlood flood-opacity="0.11"/>
      <feComposite operator="in" in2="blur"/>
      <feComposite in="SourceGraphic"/>
    </filter>
    <filter id="Rectangle_527-2" x="306" y="0" width="348" height="426" filterUnits="userSpaceOnUse">
      <feOffset dy="10" input="SourceAlpha"/>
      <feGaussianBlur stdDeviation="6.5" result="blur-2"/>
      <feFlood flood-opacity="0.11"/>
      <feComposite operator="in" in2="blur-2"/>
      <feComposite in="SourceGraphic"/>
    </filter>
  </defs>
  <g id="Group_1084" data-name="Group 1084" transform="translate(-84.5 -743.5)">
    <g id="Group_1082" data-name="Group 1082">
      <g class="cls-10" transform="matrix(1, 0, 0, 1, 84.5, 743.5)">
        <rect id="Rectangle_527-3" data-name="Rectangle 527" class="cls-1" width="247" height="309" rx="10" transform="translate(19.5 48.5)"/>
      </g>
      <text id="มกราคม" class="cls-2" transform="translate(127 836)"><tspan x="0" y="0">มกราคม</tspan></text>
      <text id="กุมภาพันธ์" class="cls-2" transform="translate(127 881)"><tspan x="0" y="0">กุมภาพันธ์</tspan></text>
      <text id="มีนาคม" class="cls-2" transform="translate(127 926)"><tspan x="0" y="0">มีนาคม</tspan></text>
      <text id="เมษายน" class="cls-2" transform="translate(127 971)"><tspan x="0" y="0">เมษายน</tspan></text>
      <text id="พฤษภาคม" class="cls-2" transform="translate(127 1016)"><tspan x="0" y="0">พฤษภาคม</tspan></text>
      <text id="มิถุนายน" class="cls-2" transform="translate(127 1061)"><tspan x="0" y="0">มิถุนายน</tspan></text>
      <g id="Rectangle_531" data-name="Rectangle 531" class="cls-3" transform="translate(206 812)">
        <rect class="cls-7" width="123" height="35" rx="3"/>
        <rect class="cls-8" x="0.5" y="0.5" width="122" height="34" rx="2.5"/>
      </g>
      <g id="Rectangle_532" data-name="Rectangle 532" class="cls-3" transform="translate(206 857)">
        <rect class="cls-7" width="123" height="35" rx="3"/>
        <rect class="cls-8" x="0.5" y="0.5" width="122" height="34" rx="2.5"/>
      </g>
      <g id="Rectangle_533" data-name="Rectangle 533" class="cls-3" transform="translate(206 902)">
        <rect class="cls-7" width="123" height="35" rx="3"/>
        <rect class="cls-8" x="0.5" y="0.5" width="122" height="34" rx="2.5"/>
      </g>
      <g id="Rectangle_534" data-name="Rectangle 534" class="cls-3" transform="translate(206 947)">
        <rect class="cls-7" width="123" height="35" rx="3"/>
        <rect class="cls-8" x="0.5" y="0.5" width="122" height="34" rx="2.5"/>
      </g>
      <g id="Rectangle_535" data-name="Rectangle 535" class="cls-3" transform="translate(206 992)">
        <rect class="cls-7" width="123" height="35" rx="3"/>
        <rect class="cls-8" x="0.5" y="0.5" width="122" height="34" rx="2.5"/>
      </g>
      <g id="Rectangle_536" data-name="Rectangle 536" class="cls-3" transform="translate(206 1037)">
        <rect class="cls-7" width="123" height="35" rx="3"/>
        <rect class="cls-8" x="0.5" y="0.5" width="122" height="34" rx="2.5"/>
      </g>
      <text id="_60_000_" data-name="60,000 ฿" class="cls-2" transform="translate(255 836)"><tspan x="0" y="0">60,000 ฿</tspan></text>
    </g>
    <g id="Group_1083" data-name="Group 1083">
      <g class="cls-9" transform="matrix(1, 0, 0, 1, 84.5, 743.5)">
        <rect id="Rectangle_527-4" data-name="Rectangle 527" class="cls-1" width="309" height="387" rx="10" transform="translate(325.5 9.5)"/>
      </g>
      <text id="พฤษภาคม-2" data-name="พฤษภาคม" class="cls-4" transform="translate(439 1031)"><tspan x="0" y="0">พฤษภาคม</tspan></text>
      <text id="มิถุนายน-2" data-name="มิถุนายน" class="cls-4" transform="translate(439 1088)"><tspan x="0" y="0">มิถุนายน</tspan></text>
      <g id="Rectangle_535-2" data-name="Rectangle 535" class="cls-3" transform="translate(537 1004)">
        <rect class="cls-7" width="154" height="43" rx="3"/>
        <rect class="cls-8" x="0.5" y="0.5" width="153" height="42" rx="2.5"/>
      </g>
      <g id="Rectangle_536-2" data-name="Rectangle 536" class="cls-3" transform="translate(537 1060)">
        <rect class="cls-7" width="154" height="43" rx="3"/>
        <rect class="cls-8" x="0.5" y="0.5" width="153" height="42" rx="2.5"/>
      </g>
      <text id="_10_000_" data-name="10,000 ฿" class="cls-5" transform="translate(600 1031)"><tspan x="0" y="0">10,000 ฿</tspan></text>
      <text id="_10_000_2" data-name="10,000 ฿" class="cls-5" transform="translate(600 1088)"><tspan x="0" y="0">10,000 ฿</tspan></text>
      <text id="มกราคม-2" data-name="มกราคม" class="cls-4" transform="translate(439 807)"><tspan x="0" y="0">มกราคม</tspan></text>
      <text id="กุมภาพันธ์-2" data-name="กุมภาพันธ์" class="cls-4" transform="translate(439 863)"><tspan x="0" y="0">กุมภาพันธ์</tspan></text>
      <text id="มีนาคม-2" data-name="มีนาคม" class="cls-4" transform="translate(439 920)"><tspan x="0" y="0">มีนาคม</tspan></text>
      <text id="เมษายน-2" data-name="เมษายน" class="cls-4" transform="translate(439 975)"><tspan x="0" y="0">เมษายน</tspan></text>
      <g id="Rectangle_531-2" data-name="Rectangle 531" class="cls-3" transform="translate(537 779)">
        <rect class="cls-7" width="154" height="43" rx="3"/>
        <rect class="cls-8" x="0.5" y="0.5" width="153" height="42" rx="2.5"/>
      </g>
      <g id="Rectangle_532-2" data-name="Rectangle 532" class="cls-3" transform="translate(537 834)">
        <rect class="cls-7" width="154" height="45" rx="3"/>
        <rect class="cls-8" x="0.5" y="0.5" width="153" height="44" rx="2.5"/>
      </g>
      <g id="Rectangle_533-2" data-name="Rectangle 533" class="cls-3" transform="translate(537 891)">
        <rect class="cls-7" width="154" height="44" rx="3"/>
        <rect class="cls-8" x="0.5" y="0.5" width="153" height="43" rx="2.5"/>
      </g>
      <g id="Rectangle_534-2" data-name="Rectangle 534" class="cls-3" transform="translate(537 947)">
        <rect class="cls-7" width="154" height="43" rx="3"/>
        <rect class="cls-8" x="0.5" y="0.5" width="153" height="42" rx="2.5"/>
      </g>
      <text id="_10_000_3" data-name="10,000 ฿" class="cls-5" transform="translate(600 807)"><tspan x="0" y="0">10,000 ฿</tspan></text>
      <text id="_10_000_4" data-name="10,000 ฿" class="cls-5" transform="translate(600 863)"><tspan x="0" y="0">10,000 ฿</tspan></text>
      <text id="_10_000_5" data-name="10,000 ฿" class="cls-5" transform="translate(600 920)"><tspan x="0" y="0">10,000 ฿</tspan></text>
      <text id="_10_000_6" data-name="10,000 ฿" class="cls-5" transform="translate(600 975)"><tspan x="0" y="0">10,000 ฿</tspan></text>
    </g>
    <path id="Path_1384" data-name="Path 1384" class="cls-6" d="M2303.173,152.032l0,0-22.025-9.3a2.428,2.428,0,0,0-2.147,4.346l16.336,9.319c-2.192.673-4.35,1.423-6.552,2l-3.481.829c-.581.132-1.154.287-1.737.4l-1.761.289-3.5.577-3.528.336-1.758.163-1.764.046c-1.175.017-2.345.095-3.515.064a69.326,69.326,0,0,1-13.814-1.582c-1.13-.22-2.235-.522-3.336-.83-1.111-.274-2.178-.665-3.258-1.006-1.055-.387-2.129-.755-3.13-1.205-.51-.213-1.014-.431-1.488-.667-.237-.115-.494-.228-.7-.345s-.478-.247-.558-.307a5.327,5.327,0,0,0-.853-.5,4.971,4.971,0,0,0-4.161,9.029l.531.245c.467.215.76.319,1.109.459s.662.243.99.361c.655.238,1.3.438,1.944.63,1.287.411,2.571.707,3.856,1.022,1.29.262,2.569.57,3.863.748,1.289.215,2.576.416,3.87.53a76.874,76.874,0,0,0,15.425.1c1.274-.107,2.536-.322,3.8-.48l1.89-.257,1.87-.378,3.723-.768,3.656-1.013,1.822-.506c.6-.187,1.189-.415,1.784-.62l3.55-1.261c1.432-.548,2.834-1.166,4.23-1.786l-7.072,13.343a2.428,2.428,0,0,0,4.137,2.527l13.334-19.108a3.781,3.781,0,0,0,.368-.668A3.647,3.647,0,0,0,2303.173,152.032Z" transform="translate(-1898.476 710.252) rotate(-1)"/>
  </g>
</svg>
