<svg xmlns="http://www.w3.org/2000/svg" viewBox="0 0 382 97.01"><defs><style>.cls-1{fill:#252522;}</style></defs><title>Logo Silverman</title><g id="Layer_2" data-name="Layer 2"><g id="Layer_1-2" data-name="Layer 1"><path class="cls-1" d="M29.59,63.52C28,60.72,26,59,21.1,54c-1.41-1.45-4.38-3.61-6.37-6.48a14.83,14.83,0,0,1-2.09-6.14V38.15a4.21,4.21,0,0,1,4.14-4.31c2.08,0,3.57,1.92,3.57,4.3v8h12v-8c.09-8.75-6.74-16.87-15.77-16.79A16.8,16.8,0,0,0,0,38.16c.07,2.28.11,3.42.18,5.71C.29,46.52,1.6,52,4.1,55.31c3.17,4.19,7.65,7.79,11.07,11.92,1.72,2.09,5.18,4.92,5.18,9v4c0,2.44-1.51,4.32-3.57,4.32a4.21,4.21,0,0,1-4.14-4.31v-8c-4.81,0-7.21,0-12,0v8C.56,89.11,7.8,97.07,16.78,97c9.22-.05,16-7.64,16-16.77,0-2.32,0-3.48,0-5.79A25.18,25.18,0,0,0,29.59,63.52Zm19.09-42.2H38.91V97c1.09,0,1.63,0,2.7,0,2.83,0,4.24,0,7.07,0h2.7V21.32ZM71.29,84.53V21.31H68.58c-2.81,0-4.23,0-7.06,0H58.83V97H88.11V84.52H71.29Zm39.78-61q-3,23.52-6.1,47-3-23.94-6.1-47.89c-.15-.55-.24-.84-.39-1.39H85.93Q92,59.13,98,97q7,0,13.94,0,6.27-37.82,12.51-75.66h-13ZM156,21.26l-24.41,0h-2.69V97c1.07,0,1.61,0,2.69,0l24.41,0c1.09,0,1.64,0,2.74,0V84.48H141.31V65.34c3.05,0,4.58,0,7.63,0,1.08,0,1.62,0,2.7,0V52.87H141.31V33.77c4.89,0,9.76,0,14.65,0h2.74V21.26Zm42,68.68V75.67c0-4.47-5.07-10.87-5.13-12.28s5.06-7.51,5.13-12.29V39.79a18.59,18.59,0,0,0-18.57-18.54c-1.92,0-2.88,0-4.79,0H164.8V96.92c1.08,0,1.62,0,2.71,0,2.82,0,4.22,0,7.05,0h2.7V69.62h2.09a6,6,0,0,1,4.28,1.78,5.82,5.82,0,0,1,1.78,4.26V90c0,1.22.1,2.47.22,3.75a7.44,7.44,0,0,0,1,3.21h12.46Q197.75,94.51,197.92,89.94ZM185.85,51.12a6.09,6.09,0,0,1-6.06,6.05h-2.53V33.74h2.53a5.93,5.93,0,0,1,4.27,1.79,5.75,5.75,0,0,1,1.79,4.27ZM307.28,21.18q-6.52,37.85-13,75.68c5.13,0,7.69,0,12.81,0,.76-3.92,1.54-7.8,2.32-11.7l12.14,0c.78,3.91,1.57,7.89,2.32,11.8,5.12,0,7.68,0,12.8,0q-6.52-37.89-13-75.76Zm3.92,52q2.1-18,4.22-36,2.15,18,4.27,36.05Zm58.29-52.07c0,17.18.56,51.59.45,51.6s-8.38-34.36-12.2-51.59c-5.59,0-11.16,0-16.74,0q0,37.83,0,75.66h12.47V47c3.34,16.67,7.41,33.24,11.37,49.83H382V21.14ZM283.84,10.43Q264.7,32.85,245.57,55.27q-19.08-22.4-38.17-44.8h-.68V96.54l77.8,0s0,0,0-.06v-86C284.25,10.43,284.13,10.44,283.84,10.43ZM247.69,23.67a2.87,2.87,0,0,0-2.06-.85,2.75,2.75,0,0,0-2.07.85,2.92,2.92,0,0,0,0,4.12,2.76,2.76,0,0,0,2.07.86,2.93,2.93,0,0,0,2.06-.86,2.9,2.9,0,0,0,0-4.12Zm-15.26-.24c3.56-2.44,7.13-4.86,10.7-7.3a3.28,3.28,0,0,0,.43.57,2.83,2.83,0,0,0,2.07.85,2.88,2.88,0,0,0,2.06-.86,3,3,0,0,0,.44-.58l10.69,7.31h.24V0h-.24L245.61,9Q239,4.54,232.43,0h-.24V23.43Zm13.2,10.29a2.72,2.72,0,0,0-2.07.86,2.77,2.77,0,0,0-.85,2.05,2.83,2.83,0,0,0,.85,2.07,2.75,2.75,0,0,0,2.07.85,2.92,2.92,0,0,0,2.92-2.92,2.78,2.78,0,0,0-.86-2.05A2.93,2.93,0,0,0,245.63,33.72Z"/></g></g></svg>