<svg id="Component_9_1" data-name="Component 9 – 1" xmlns="http://www.w3.org/2000/svg" width="20" height="20" viewBox="0 0 20 20">
  <defs>
    <style>
      .cls-1 {
        fill: #1390dd;
      }
    </style>
  </defs>
  <path id="Path_972" data-name="Path 972" class="cls-1" d="M1679.37,455.413a10,10,0,1,0,10,10A10.011,10.011,0,0,0,1679.37,455.413Zm0,18.361a8.361,8.361,0,1,1,8.361-8.361A8.37,8.37,0,0,1,1679.37,473.774Zm3.41-11.663L1677.8,467.1l-1.507-1.507a.82.82,0,1,0-1.159,1.159l2.086,2.087a.82.82,0,0,0,1.159,0l5.564-5.564a.82.82,0,1,0-1.159-1.159Z" transform="translate(-1669.37 -455.413)"/>
</svg>
