<svg xmlns="http://www.w3.org/2000/svg" width="121.234" height="70.616" viewBox="0 0 121.234 70.616">
  <defs>
    <style>
      .cls-1 {
        fill: #2b2b2b;
      }
    </style>
  </defs>
  <g id="Group_1134" data-name="Group 1134" transform="translate(-632 -4641)">
    <g id="Group_1133" data-name="Group 1133" transform="translate(632 4641)">
      <g id="Group_1129" data-name="Group 1129" transform="translate(0 0)">
        <path id="Path_1461" data-name="Path 1461" class="cls-1" d="M1531.534,447.28c-4.324,10.172.911,24.177,8.032,32.188,3.555,4.006,7.094,7.56,11.287,7.051.079-.01.158-.021.239-.034a12.791,12.791,0,0,0,4.616-1.851,13.155,13.155,0,0,1,5.488-2.026,12.372,12.372,0,0,1,5.537.642,11.483,11.483,0,0,0,5.3.609c4.713-.662,7.1-5.25,9.2-9.3a36.011,36.011,0,0,0,3.352-9.68l.011-.06a.535.535,0,0,0-.361-.617l-.041-.012a13.639,13.639,0,0,1-9.711-11.4c-.942-7.159,4.142-11.628,5.171-12.451l.048-.039a.535.535,0,0,0,.06-.764,15.44,15.44,0,0,0-12.85-5.083c-.347.008-.7.033-1.058.076a21.173,21.173,0,0,0-7.337,2.809,12.251,12.251,0,0,1-3.493,1.523,11.95,11.95,0,0,1-3.882-.641,18.3,18.3,0,0,0-6.812-.876l-.168.022A16.321,16.321,0,0,0,1531.534,447.28Z" transform="translate(-1529.963 -419.03)"/>
        <path id="Path_1462" data-name="Path 1462" class="cls-1" d="M1606.6,391.666a14.9,14.9,0,0,0-9.159,6.2c-1.754,2.612-3.269,6.8-2.261,10.705a.535.535,0,0,0,.541.4c.228-.01.46-.029.69-.057a12.608,12.608,0,0,0,8.646-5.849,14.722,14.722,0,0,0,2.151-10.992A.539.539,0,0,0,1606.6,391.666Z" transform="translate(-1571.51 -391.659)"/>
      </g>
      <g id="Group_1132" data-name="Group 1132" transform="translate(67.525 8.107)">
        <g id="Group_1131" data-name="Group 1131">
          <g id="Group_1130" data-name="Group 1130">
            <path id="Path_1463" data-name="Path 1463" class="cls-1" d="M1725.761,459.98l-.15-.035a3.6,3.6,0,0,0-4.306,2.681l-3.538,15.21a3.593,3.593,0,0,0,2.68,4.308l.153.036a3.6,3.6,0,0,0,4.307-2.683l3.538-15.21A3.6,3.6,0,0,0,1725.761,459.98Z" transform="translate(-1717.674 -443.428)"/>
            <path id="Path_1464" data-name="Path 1464" class="cls-1" d="M1738.48,489.116a3.3,3.3,0,0,0,2.465,3.952l3.431.8-1.911,8.215a3.6,3.6,0,0,0,2.68,4.311l.15.035a3.6,3.6,0,0,0,4.312-2.685l1.911-8.215,4.794,1.115-1.91,8.215a3.6,3.6,0,0,0,2.684,4.312l.148.035a3.6,3.6,0,0,0,4.31-2.685l1.911-8.215,3.433.8a3.3,3.3,0,0,0,3.953-2.459l5.586-24.015-32.36-7.527Z" transform="translate(-1730.94 -446.789)"/>
            <path id="Path_1465" data-name="Path 1465" class="cls-1" d="M1782.283,423.581l3.7-3.573a.594.594,0,1,0-.824-.856l-3.838,3.694a19.178,19.178,0,0,0-13.975-3.251l-1.808-5.007a.6.6,0,0,0-1.123.4l1.749,4.841c-5.478,1.266-9.85,5.037-11.061,10.246-.074.32-.128.64-.173.959l32.488,7.557c.1-.306.191-.618.266-.938C1788.9,432.448,1786.637,427.134,1782.283,423.581Zm-17.342,3.906a1.6,1.6,0,1,1,1.927-1.2A1.6,1.6,0,0,1,1764.941,427.487Zm15.062,3.5a1.6,1.6,0,1,1,1.925-1.2A1.6,1.6,0,0,1,1780,430.991Z" transform="translate(-1741.53 -414.195)"/>
            <path id="Path_1466" data-name="Path 1466" class="cls-1" d="M1844.868,487.686l-.145-.034a3.6,3.6,0,0,0-4.311,2.68l-3.538,15.209a3.6,3.6,0,0,0,2.685,4.31l.148.034a3.6,3.6,0,0,0,4.306-2.683l3.538-15.209A3.6,3.6,0,0,0,1844.868,487.686Z" transform="translate(-1793.935 -461.168)"/>
          </g>
        </g>
      </g>
    </g>
  </g>
</svg>
