<svg xmlns="http://www.w3.org/2000/svg" width="82.5" height="82.5" viewBox="0 0 82.5 82.5">
  <defs>
    <style>
      .cls-1 {
        fill: #2b2b2b;
      }

      .cls-2 {
        fill: #ccc;
      }

      .cls-3 {
        fill: #fff;
      }

      .cls-4 {
        fill: #e6e6e6;
      }
    </style>
  </defs>
  <g id="Group_1122" data-name="Group 1122" transform="translate(-789 -163.336)">
    <path id="Path_1441" data-name="Path 1441" class="cls-1" d="M871.5,204.586a41.307,41.307,0,0,1-22.332,36.665h0A41.279,41.279,0,1,1,871.5,204.586Z"/>
    <path id="Path_1442" data-name="Path 1442" class="cls-2" d="M874.182,185.421a16.425,16.425,0,0,1-10.464,10.26,24.057,24.057,0,0,0-9.666,5.859l-38.227,38.226a41.391,41.391,0,0,1-10.092-8.957l29.793-29.792a23.461,23.461,0,0,0,6.842-19.118,16.377,16.377,0,0,1,5.492-14.172,16.054,16.054,0,0,1,2.924-2.045A16.4,16.4,0,0,1,856,163.9l-1.068,3.418-1.995,6.394a7.253,7.253,0,0,0,13.848,4.32l.6-1.913,2.5-8.013A16.407,16.407,0,0,1,874.182,185.421Z" transform="translate(-7.529 -0.252)"/>
    <path id="Path_1443" data-name="Path 1443" class="cls-3" d="M911,266.964A41.427,41.427,0,0,1,893.1,285c-6.45-9-8.461-18.093-4.288-22.264S902.027,260.56,911,266.964Z" transform="translate(-43.933 -43.746)"/>
    <path id="Path_1444" data-name="Path 1444" class="cls-3" d="M899.855,282.408a41.109,41.109,0,0,1-6.755,4.376h0c-6.449-9-8.459-18.093-4.286-22.264C887.176,266.155,891.928,273.664,899.855,282.408Z" transform="translate(-43.933 -45.532)"/>
    <path id="Path_1445" data-name="Path 1445" class="cls-4" d="M859.568,227.655l-4.763,4.763-36.557-36.561,2.063-2.062,2.7-2.7Z" transform="translate(-13.161 -12.492)"/>
    <path id="Path_1446" data-name="Path 1446" class="cls-2" d="M818.245,198.066,820.307,196l36.559,36.559-2.062,2.063Z" transform="translate(-13.16 -14.701)"/>
    <path id="Path_1447" data-name="Path 1447" class="cls-3" d="M891.419,247.306a3.409,3.409,0,0,1,0,4.821l-13.213,13.214a3.41,3.41,0,1,1-4.822-4.822L886.6,247.306A3.408,3.408,0,0,1,891.419,247.306Z" transform="translate(-37.523 -37.337)"/>
    <path id="Path_1448" data-name="Path 1448" class="cls-3" d="M895.462,247.306a3.408,3.408,0,0,1,0,4.821L887.19,260.4a3.41,3.41,0,1,1-4.822-4.822l8.273-8.273A3.408,3.408,0,0,1,895.462,247.306Z" transform="translate(-41.566 -37.337)"/>
    <path id="Path_1449" data-name="Path 1449" class="cls-4" d="M815.434,188.287l.833-11.606-14.513-8.294-6.22,6.22,8.293,14.513Z" transform="translate(-2.941 -2.273)"/>
  </g>
</svg>
