<svg xmlns="http://www.w3.org/2000/svg" width="2975.774" height="2134.99" viewBox="0 0 2975.774 2134.99">
    <defs>
        <style>
            .cls-1{fill:#f2f3f5;opacity:.6}.cls-2{fill:#9d9d9d;opacity:.05}
        </style>
    </defs>
    <g id="Group_258" data-name="Group 258" transform="translate(665.247 -2133.23)">
        <g id="Group_153" data-name="Group 153" transform="rotate(8 -111.471 2401.598)">
            <g id="Group_100" data-name="Group 100" transform="translate(-479.909 2163.987)">
                <path id="Path_209" d="M-267.886 2928.919s-7.359-13.145 226.671-52.726 310.569-60.975 654.991 64.185 323.816 63.262 549.015 186.551 256.109 115.818 494.555 63.513 441.567 0 604.947 410.965-322.344 530.518-304.681 739.735-105.976 332.508-392.995 272.731-242.862-470.741-759.5-403.492-644.683 261.519-918.455 37.36-269.356-343.715-203.121-620.182 48.573-698.64 48.573-698.64z" class="cls-1" data-name="Path 209" transform="translate(484.909 -2845.428)"/>
                <path id="Path_210" d="M-404.61 3013.975s140.973-125.678 519.839-48.053 259.919 3.7 502.217 48.053 158.595 73.928 436.136 151.552 321.595 110.892 475.784 0 365.649-158.945 533.055 40.661 237.892 706.013 57.27 1001.727-546.271 269.837-942.758 140.463-462.568-230.443-788.568-108.462-709.271 41.926-828.217-183.555 35.242-1042.386 35.242-1042.386z" class="cls-2" data-name="Path 210" transform="translate(484.909 -2845.429)"/>
            </g>
        </g>
    </g>
</svg>
