<svg xmlns="http://www.w3.org/2000/svg" xmlns:xlink="http://www.w3.org/1999/xlink" width="233.219" height="183.267" viewBox="0 0 233.219 183.267">
    <defs>
        <style>
            .cls-1{fill:#212a34}.cls-2{fill:url(#linear-gradient)}.cls-3{fill:url(#linear-gradient-2)}.cls-4,.cls-9{fill:#fff}.cls-4{opacity:.32}.cls-10,.cls-4{mix-blend-mode:overlay;isolation:isolate}.cls-5{fill:#353535}.cls-6{fill:#8c8c8c}.cls-7{fill:#28292a}.cls-8{fill:#343535}.cls-10{fill:#ffedd4}
        </style>
        <linearGradient id="linear-gradient" x1=".716" x2=".193" y1=".702" y2=".213" gradientUnits="objectBoundingBox">
            <stop offset="0" stop-color="#f9b13d"/>
            <stop offset=".352" stop-color="#ffe8bb"/>
            <stop offset=".559" stop-color="#d39d4f"/>
            <stop offset="1" stop-color="#ffe8bb"/>
        </linearGradient>
        <linearGradient id="linear-gradient-2" x1=".222" x2=".92" y1=".155" y2="1.022" xlink:href="#linear-gradient"/>
    </defs>
    <g id="Group_1391" data-name="Group 1391" transform="translate(-443 -1658)">
        <g id="Group_1390" data-name="Group 1390" transform="translate(443 1658)">
            <circle id="Ellipse_209" cx="91.633" cy="91.633" r="91.633" class="cls-1" data-name="Ellipse 209" transform="translate(24.513)"/>
            <circle id="Ellipse_210" cx="85.143" cy="85.143" r="85.143" class="cls-2" data-name="Ellipse 210" transform="translate(31.003 6.49)"/>
            <circle id="Ellipse_211" cx="80.071" cy="80.071" r="80.071" class="cls-3" data-name="Ellipse 211" transform="translate(36.075 11.562)"/>
            <path id="Path_3263" d="M178.545 121.764c21.026 1.34 56.83.241 98.067-15.193 19.032-7.123 33.2-15.371 43.744-23.5a80.072 80.072 0 0 0-141.811 38.693z" class="cls-4" data-name="Path 3263" transform="translate(-141.672 -41.438)"/>
            <path id="Path_3264" d="M103.185 281.172H82.87l7.4 17.584-7.4 17.584h41.646l-19.9-13.419z" class="cls-5" data-name="Path 3264" transform="translate(-82.87 -181.672)"/>
            <path id="Path_3265" d="M600.347 281.172h21.24l-7.4 17.584 7.4 17.584h-41.646l19.9-16.2z" class="cls-5" data-name="Path 3265" transform="translate(-388.369 -181.672)"/>
            <g id="Group_1386" data-name="Group 1386" transform="translate(94.77 64.836)">
                <path id="Path_3266" d="M328.768 192.1h4.7a9.078 9.078 0 0 1 2.657.372 5.764 5.764 0 0 1 2.107 1.137 5.124 5.124 0 0 1 1.379 1.958 7.336 7.336 0 0 1 .494 2.815 6.661 6.661 0 0 1-.5 2.694 5.369 5.369 0 0 1-1.389 1.92 5.765 5.765 0 0 1-2.107 1.156 8.857 8.857 0 0 1-2.657.382h-4.68zm4.53 9.937a3.951 3.951 0 0 0 2.871-.979 3.584 3.584 0 0 0 1.007-2.695 4.9 4.9 0 0 0-.233-1.557 3.123 3.123 0 0 0-.708-1.193 3.168 3.168 0 0 0-1.2-.764 4.97 4.97 0 0 0-1.734-.271h-1.715v7.458z" data-name="Path 3266" transform="translate(-328.768 -191.766)"/>
                <path id="Path_3267" d="M363.839 192.1h3.114l4.549 12.435h-3.076l-.95-2.852h-4.382l-.95 2.852H359.2zm2.965 7.4l-1.51-4.7-1.547 4.7z" data-name="Path 3267" transform="translate(-347.47 -191.766)"/>
                <path id="Path_3268" d="M390.94 199.335l-4.363-7.233h3.188l2.7 4.7 2.628-4.7h3.058l-4.363 7.215v5.22h-2.848z" data-name="Path 3268" transform="translate(-364.297 -191.766)"/>
                <path id="Path_3269" d="M418.229 200.291a6.01 6.01 0 0 0 .569.531 4.836 4.836 0 0 0 .727.494 4.268 4.268 0 0 0 .876.363 3.58 3.58 0 0 0 1.016.14 2.238 2.238 0 0 0 .634-.093 2.051 2.051 0 0 0 .578-.271 1.446 1.446 0 0 0 .419-.429 1.044 1.044 0 0 0 .159-.568 1.185 1.185 0 0 0-.671-1.073 9.218 9.218 0 0 0-2.125-.755 5.588 5.588 0 0 1-1.315-.485 4.1 4.1 0 0 1-1.044-.764 3.241 3.241 0 0 1-.681-1.026 3.3 3.3 0 0 1-.243-1.287 3.871 3.871 0 0 1 .28-1.472 3.413 3.413 0 0 1 .848-1.221 4.077 4.077 0 0 1 1.417-.839 5.88 5.88 0 0 1 2-.308 6.493 6.493 0 0 1 1.678.2 6.106 6.106 0 0 1 1.24.467 4.3 4.3 0 0 1 .839.559c.217.193.382.345.494.457l-1.622 1.79q-.205-.168-.476-.364a4.423 4.423 0 0 0-.605-.363 4.226 4.226 0 0 0-.736-.28 3.155 3.155 0 0 0-.848-.111 1.887 1.887 0 0 0-.587.093 2.043 2.043 0 0 0-.523.252 1.332 1.332 0 0 0-.372.373.823.823 0 0 0-.14.457 1.163 1.163 0 0 0 .671 1.026 6.542 6.542 0 0 0 1.846.652 8.279 8.279 0 0 1 1.352.457 4.418 4.418 0 0 1 1.184.755 3.5 3.5 0 0 1 .839 1.146 3.9 3.9 0 0 1 .316 1.65 3.279 3.279 0 0 1-.373 1.548 3.923 3.923 0 0 1-1.016 1.23 4.753 4.753 0 0 1-1.51.811 5.89 5.89 0 0 1-1.874.289 7.509 7.509 0 0 1-1.7-.178 6.917 6.917 0 0 1-1.379-.466 6.181 6.181 0 0 1-1.109-.662 6.008 6.008 0 0 1-.849-.764z" data-name="Path 3269" transform="translate(-382.639 -191.23)"/>
            </g>
            <g id="Group_1387" data-name="Group 1387" transform="translate(84.525 129.664)">
                <path id="Path_3270" d="M307.324 363.829h3.56v4a5.17 5.17 0 0 1-1.683.963 6.586 6.586 0 0 1-2.2.34 5.485 5.485 0 0 1-2.03-.353 4.3 4.3 0 0 1-1.517-.99 4.231 4.231 0 0 1-.949-1.524 5.618 5.618 0 0 1-.326-1.953 5.244 5.244 0 0 1 .346-1.925 4.558 4.558 0 0 1 2.493-2.577 4.875 4.875 0 0 1 1.939-.374 4.972 4.972 0 0 1 2.21.464 4.292 4.292 0 0 1 1.572 1.295l-1.413 1.344a4.142 4.142 0 0 0-.977-.859 2.428 2.428 0 0 0-1.309-.333 2.63 2.63 0 0 0-1.136.236 2.529 2.529 0 0 0-.845.637 2.762 2.762 0 0 0-.526.942 3.608 3.608 0 0 0-.18 1.15 3.339 3.339 0 0 0 .208 1.205 2.657 2.657 0 0 0 .582.921 2.6 2.6 0 0 0 .88.589 2.866 2.866 0 0 0 1.1.208 3.639 3.639 0 0 0 1.011-.132 2.3 2.3 0 0 0 .817-.423v-1.16h-1.635z" data-name="Path 3270" transform="translate(-302.185 -359.438)"/>
                <path id="Path_3271" d="M328.6 367.166h2v3.74a1.307 1.307 0 0 0 .27.873.985.985 0 0 0 .8.319 1.192 1.192 0 0 0 .54-.118 1.263 1.263 0 0 0 .4-.311 1.291 1.291 0 0 0 .249-.457 1.777 1.777 0 0 0 .083-.54v-3.5h1.981v6.5h-1.912l-.055-.692a2.434 2.434 0 0 1-.838.616 2.544 2.544 0 0 1-1.087.242 2.367 2.367 0 0 1-1.773-.665 2.7 2.7 0 0 1-.651-1.967z" data-name="Path 3271" transform="translate(-318.421 -364.188)"/>
                <path id="Path_3272" d="M351.987 372.7a2.165 2.165 0 0 1-.838.6 3.009 3.009 0 0 1-1.856.111 2.138 2.138 0 0 1-.706-.325 1.8 1.8 0 0 1-.54-.617 1.98 1.98 0 0 1-.215-.97 2.173 2.173 0 0 1 .229-1.011 2.119 2.119 0 0 1 .63-.741 2.862 2.862 0 0 1 .949-.451 4.408 4.408 0 0 1 1.184-.152q.346 0 .7.014a2.9 2.9 0 0 1 .464.042v-.139a.809.809 0 0 0-.1-.422.931.931 0 0 0-.277-.291 1.126 1.126 0 0 0-.395-.166 2.2 2.2 0 0 0-.471-.049 3.128 3.128 0 0 0-1.1.166 3.594 3.594 0 0 0-.741.374l-.817-1.219a5.329 5.329 0 0 1 .471-.3 3.555 3.555 0 0 1 .623-.277 5.065 5.065 0 0 1 .811-.2 6.228 6.228 0 0 1 1.032-.076 2.778 2.778 0 0 1 2.188.8 3.106 3.106 0 0 1 .706 2.14v3.782h-1.87zm0-2.258a3.702 3.702 0 0 0-.263-.035 4.207 4.207 0 0 0-.444-.021 2.185 2.185 0 0 0-1.177.236.757.757 0 0 0-.346.664q0 .8.97.8a1.458 1.458 0 0 0 .464-.076 1.283 1.283 0 0 0 .4-.215 1.1 1.1 0 0 0 .284-.346 1.012 1.012 0 0 0 .111-.485z" data-name="Path 3272" transform="translate(-330.24 -363.834)"/>
                <path id="Path_3273" d="M367.348 366.967h1.912l.069.817a2.976 2.976 0 0 1 .686-.637 1.928 1.928 0 0 1 1.129-.3 3.127 3.127 0 0 1 .45.028 1.751 1.751 0 0 1 .367.1l-.318 1.759a2.384 2.384 0 0 0-.72-.1 1.574 1.574 0 0 0-1.143.423 1.59 1.59 0 0 0-.436 1.2v3.214h-1.995z" data-name="Path 3273" transform="translate(-342.234 -363.989)"/>
                <path id="Path_3274" d="M384.264 372.7a2.167 2.167 0 0 1-.838.6 3.009 3.009 0 0 1-1.856.111 2.142 2.142 0 0 1-.706-.325 1.8 1.8 0 0 1-.54-.617 1.98 1.98 0 0 1-.215-.97 2.178 2.178 0 0 1 .229-1.011 2.123 2.123 0 0 1 .63-.741 2.866 2.866 0 0 1 .949-.451 4.411 4.411 0 0 1 1.185-.152q.346 0 .7.014a2.9 2.9 0 0 1 .464.042v-.139a.805.805 0 0 0-.1-.422.927.927 0 0 0-.277-.291 1.123 1.123 0 0 0-.395-.166 2.194 2.194 0 0 0-.471-.049 3.13 3.13 0 0 0-1.1.166 3.6 3.6 0 0 0-.741.374l-.817-1.219a5.34 5.34 0 0 1 .471-.3 3.555 3.555 0 0 1 .623-.277 5.064 5.064 0 0 1 .81-.2 6.235 6.235 0 0 1 1.032-.076 2.779 2.779 0 0 1 2.189.8 3.108 3.108 0 0 1 .706 2.14v3.782h-1.87zm0-2.258a3.702 3.702 0 0 0-.263-.035 4.2 4.2 0 0 0-.443-.021 2.186 2.186 0 0 0-1.178.236.757.757 0 0 0-.346.664q0 .8.97.8a1.457 1.457 0 0 0 .464-.076 1.286 1.286 0 0 0 .4-.215 1.107 1.107 0 0 0 .284-.346 1.017 1.017 0 0 0 .111-.485z" data-name="Path 3274" transform="translate(-350.076 -363.834)"/>
                <path id="Path_3275" d="M399.661 366.923h1.912l.055.706a2.284 2.284 0 0 1 .838-.623 2.606 2.606 0 0 1 1.088-.235 2.391 2.391 0 0 1 1.78.665 2.686 2.686 0 0 1 .658 1.967v4.017H404v-3.74a1.285 1.285 0 0 0-.27-.859.935.935 0 0 0-.755-.319 1.355 1.355 0 0 0-.582.118 1.237 1.237 0 0 0-.415.312 1.3 1.3 0 0 0-.249.45 1.772 1.772 0 0 0-.083.547v3.491h-1.981z" data-name="Path 3275" transform="translate(-362.094 -363.945)"/>
                <path id="Path_3276" d="M419.448 365.6h-1.025v-1.57h1.025v-1.967h1.994v1.967h1.676v1.57h-1.676v2.563a1.221 1.221 0 0 0 .187.728.68.68 0 0 0 .589.256 1.23 1.23 0 0 0 .526-.1 2.629 2.629 0 0 0 .415-.242l.8 1.219a3.229 3.229 0 0 1-2.05.748 2.973 2.973 0 0 1-1.164-.2 1.96 1.96 0 0 1-.762-.554 2.136 2.136 0 0 1-.415-.852 4.559 4.559 0 0 1-.124-1.108z" data-name="Path 3276" transform="translate(-373.625 -361.051)"/>
                <path id="Path_3277" d="M439.8 372.6q-.112.07-.333.229a3.035 3.035 0 0 1-.575.312 5.274 5.274 0 0 1-.838.27 4.729 4.729 0 0 1-1.108.118 4.133 4.133 0 0 1-1.5-.256 3.262 3.262 0 0 1-1.129-.713 3.012 3.012 0 0 1-.706-1.1 4.005 4.005 0 0 1-.242-1.42 3.813 3.813 0 0 1 .228-1.309 3.277 3.277 0 0 1 .658-1.1 3.2 3.2 0 0 1 1.053-.755 3.373 3.373 0 0 1 1.413-.284 3.247 3.247 0 0 1 1.385.278 2.849 2.849 0 0 1 1 .768 3.321 3.321 0 0 1 .617 1.177 5.173 5.173 0 0 1 .208 1.5v.332h-4.627a1.241 1.241 0 0 0 .464.922 1.818 1.818 0 0 0 1.24.395 2.976 2.976 0 0 0 1.261-.229 4.356 4.356 0 0 0 .706-.395zm-1.746-3.228a1.161 1.161 0 0 0-.083-.422 1.236 1.236 0 0 0-.249-.4 1.334 1.334 0 0 0-.415-.3 1.388 1.388 0 0 0-.6-.118 1.483 1.483 0 0 0-.61.118 1.375 1.375 0 0 0-.436.3 1.282 1.282 0 0 0-.263.4 1.083 1.083 0 0 0-.09.422z" data-name="Path 3277" transform="translate(-382.814 -363.834)"/>
                <path id="Path_3278" d="M459.031 372.6q-.111.07-.333.229a3.043 3.043 0 0 1-.575.312 5.266 5.266 0 0 1-.838.27 4.726 4.726 0 0 1-1.108.118 4.136 4.136 0 0 1-1.5-.256 3.256 3.256 0 0 1-1.129-.713 3.012 3.012 0 0 1-.706-1.1 4 4 0 0 1-.242-1.42 3.8 3.8 0 0 1 .229-1.309 3.27 3.27 0 0 1 .658-1.1 3.2 3.2 0 0 1 1.053-.755 3.372 3.372 0 0 1 1.413-.284 3.248 3.248 0 0 1 1.385.278 2.852 2.852 0 0 1 1 .768 3.334 3.334 0 0 1 .617 1.177 5.173 5.173 0 0 1 .208 1.5v.332h-4.627a1.238 1.238 0 0 0 .464.922 1.817 1.817 0 0 0 1.24.395 2.978 2.978 0 0 0 1.261-.229 4.354 4.354 0 0 0 .706-.395zm-1.745-3.228a1.16 1.16 0 0 0-.083-.422 1.248 1.248 0 0 0-.249-.4 1.338 1.338 0 0 0-.415-.3 1.39 1.39 0 0 0-.6-.118 1.481 1.481 0 0 0-.609.118 1.381 1.381 0 0 0-.437.3 1.289 1.289 0 0 0-.263.4 1.083 1.083 0 0 0-.09.422z" data-name="Path 3278" transform="translate(-394.632 -363.834)"/>
            </g>
            <path id="Path_3279" d="M134.654 335.776l21.286 13.882v-13.882" class="cls-6" data-name="Path 3279" transform="translate(-114.696 -215.231)"/>
            <path id="Path_3280" d="M600.456 334l-20.492 14.645-.023-14.645" class="cls-6" data-name="Path 3280" transform="translate(-388.369 -214.14)"/>
            <path id="Rectangle_647" d="M0 0h192.498v35.168H0z" class="cls-7" data-name="Rectangle 647" transform="translate(19.958 86.302)"/>
            <path id="Rectangle_648" d="M0 0h192.498v17.756H0z" class="cls-8" data-name="Rectangle 648" transform="translate(19.958 86.302)"/>
            <g id="Group_1388" data-name="Group 1388" transform="translate(41.371 94.582)">
                <path id="Path_3281" d="M190.942 269.506h3.352l4.079 7.338 3.986-7.338h3.376l.727 15.638h-3.54l-.446-10.222-3.235 6.1h-1.829l-3.423-6.026-.4 10.152h-3.376z" class="cls-9" data-name="Path 3281" transform="translate(-190.215 -269.084)"/>
                <path id="Path_3282" d="M248.6 284.869a8.158 8.158 0 0 1-3.224-.633 7.866 7.866 0 0 1-4.29-4.349 8.826 8.826 0 0 1 0-6.506 7.891 7.891 0 0 1 4.29-4.337 8.523 8.523 0 0 1 6.447 0 7.891 7.891 0 0 1 4.29 4.337 8.821 8.821 0 0 1 0 6.506 7.865 7.865 0 0 1-4.29 4.349 8.16 8.16 0 0 1-3.223.633zm0-3.329a4.138 4.138 0 0 0 3.247-1.477 4.831 4.831 0 0 0 .879-1.571 6.066 6.066 0 0 0 0-3.8 4.694 4.694 0 0 0-.879-1.559 4.16 4.16 0 0 0-1.4-1.055 4.292 4.292 0 0 0-1.852-.387 4.371 4.371 0 0 0-1.864.387 4.122 4.122 0 0 0-1.407 1.055 4.686 4.686 0 0 0-.879 1.559 6.073 6.073 0 0 0 0 3.8 4.823 4.823 0 0 0 .879 1.571 4.171 4.171 0 0 0 1.407 1.078 4.253 4.253 0 0 0 1.869.399z" class="cls-9" data-name="Path 3282" transform="translate(-221.097 -268.411)"/>
                <path id="Path_3283" d="M291.438 269.506h3.376l6.776 10.152v-10.152h3.493v15.638h-3.212l-6.94-10.339v10.339h-3.493z" class="cls-9" data-name="Path 3283" transform="translate(-252.426 -269.084)"/>
                <path id="Path_3284" d="M337.184 269.506h10.691v3.094h-7.151v3.048h5.556v3h-5.556v3.376h7.666v3.118h-11.206z" class="cls-9" data-name="Path 3284" transform="translate(-280.542 -269.084)"/>
                <path id="Path_3285" d="M376.857 278.6l-5.486-9.1h4.009l3.4 5.908 3.306-5.908h3.845l-5.486 9.073v6.565h-3.587z" class="cls-9" data-name="Path 3285" transform="translate(-301.553 -269.084)"/>
                <path id="Path_3286" d="M429.465 269.506h5.861a7.781 7.781 0 0 1 2.462.34 4.708 4.708 0 0 1 1.641.9 3.3 3.3 0 0 1 .915 1.3 4.278 4.278 0 0 1 .281 1.536 3.09 3.09 0 0 1-.269 1.324 4.1 4.1 0 0 1-.633.985 3.087 3.087 0 0 1-.773.645 2.9 2.9 0 0 1-.692.3 5.22 5.22 0 0 1 .973.34 3.833 3.833 0 0 1 1.043.7 3.882 3.882 0 0 1 .832 1.148 3.662 3.662 0 0 1 .34 1.629 4.475 4.475 0 0 1-.434 2.063 3.712 3.712 0 0 1-1.219 1.383 5.361 5.361 0 0 1-1.923.785 12.054 12.054 0 0 1-2.544.246h-5.861zm5.533 6.26a3.327 3.327 0 0 0 .785-.094 2.054 2.054 0 0 0 .68-.293 1.539 1.539 0 0 0 .481-.539 1.709 1.709 0 0 0 .187-.832 1.764 1.764 0 0 0-.187-.856 1.5 1.5 0 0 0-.493-.539 2.032 2.032 0 0 0-.692-.281 3.661 3.661 0 0 0-.762-.082h-2.087v3.517zm.211 6.658a6.756 6.756 0 0 0 .844-.059 2.5 2.5 0 0 0 .868-.269 1.84 1.84 0 0 0 .668-.61 1.947 1.947 0 0 0 .27-1.1 1.757 1.757 0 0 0-.914-1.653 2.758 2.758 0 0 0-.868-.3 5.1 5.1 0 0 0-.867-.082h-2.3v4.079z" class="cls-9" data-name="Path 3286" transform="translate(-337.258 -269.084)"/>
                <path id="Path_3287" d="M470.221 269.506h3.915l5.721 15.638h-3.868l-1.2-3.587h-5.51l-1.2 3.587h-3.7zm3.728 9.307l-1.9-5.908-1.945 5.908z" class="cls-9" data-name="Path 3287" transform="translate(-358.718 -269.084)"/>
                <path id="Path_3288" d="M522.723 281.625a7.3 7.3 0 0 1-1.2 1.278 8.336 8.336 0 0 1-1.559 1.043 8.736 8.736 0 0 1-1.852.7 8.258 8.258 0 0 1-2.075.258 8.459 8.459 0 0 1-3.259-.61 7.53 7.53 0 0 1-2.544-1.7 7.64 7.64 0 0 1-1.653-2.579 9.357 9.357 0 0 1 0-6.518 7.688 7.688 0 0 1 4.208-4.384 8.2 8.2 0 0 1 3.294-.645 8.58 8.58 0 0 1 3.81.8 7.178 7.178 0 0 1 2.708 2.3l-2.415 2.321a5.805 5.805 0 0 0-1.664-1.582 4.265 4.265 0 0 0-2.3-.6 4.507 4.507 0 0 0-1.9.387 4.14 4.14 0 0 0-1.43 1.067 4.859 4.859 0 0 0-.9 1.582 5.963 5.963 0 0 0 0 3.833 4.61 4.61 0 0 0 .9 1.547 4.205 4.205 0 0 0 1.407 1.032 4.4 4.4 0 0 0 1.852.375 5.421 5.421 0 0 0 1.465-.176 4.419 4.419 0 0 0 1.1-.469 4.321 4.321 0 0 0 .856-.68q.375-.387.727-.785z" class="cls-9" data-name="Path 3288" transform="translate(-385.525 -268.449)"/>
                <path id="Path_3289" d="M553.441 269.506h3.54v6.237l5.228-6.237h4.1l-5.369 6.1 6.1 9.542h-4.29l-4.173-6.822-1.594 1.782v5.041h-3.54z" class="cls-9" data-name="Path 3289" transform="translate(-413.453 -269.084)"/>
            </g>
            <path id="Path_3290" d="M326.661 398.251l2.422 3.749 4.317 1.145-2.82 3.464.245 4.46-4.165-1.611-4.165 1.611.245-4.46-2.82-3.464 4.318-1.145z" class="cls-10" data-name="Path 3290" transform="translate(-228.561 -253.628)"/>
            <path id="Path_3291" d="M374.687 405.455l2.423 3.752 4.317 1.145-2.82 3.464.245 4.46-4.166-1.611-4.165 1.611.245-4.46-2.82-3.464 4.317-1.145z" class="cls-10" data-name="Path 3291" transform="translate(-258.078 -258.056)"/>
            <path id="Path_3292" d="M422.713 398.251l2.423 3.749 4.317 1.145-2.82 3.464.245 4.46-4.165-1.611-4.165 1.611.245-4.46-2.82-3.464L420.29 402z" class="cls-10" data-name="Path 3292" transform="translate(-287.594 -253.628)"/>
            <g id="Group_1389" data-name="Group 1389" transform="translate(92.902 29.291)">
                <path id="Path_3293" d="M327.625 123.462a12.124 12.124 0 0 0 3.014 1.97 8.235 8.235 0 0 0 3.395.688 5.538 5.538 0 0 0 3.632-1.187 4.057 4.057 0 0 0 1.448-3.323 4.357 4.357 0 0 0-1.114-2.942 4.452 4.452 0 0 0-3.537-1.281 8.119 8.119 0 0 0-1.685.166 6.386 6.386 0 0 0-1.211.356l-1.756-2.8 7.643-7.833H326.3v-5.936h18.8v4.89l-6.219 7.026a8.545 8.545 0 0 1 5.388 2.991 9.164 9.164 0 0 1 1.828 5.839 8.95 8.95 0 0 1-.973 4.225 9.5 9.5 0 0 1-2.587 3.109 11.727 11.727 0 0 1-3.727 1.923 14.554 14.554 0 0 1-4.391.664 16.745 16.745 0 0 1-5.958-1 14.22 14.22 0 0 1-4.534-2.706z" class="cls-7" data-name="Path 3293" transform="translate(-323.922 -100.438)"/>
                <path id="Path_3294" d="M399.833 130.522a10.756 10.756 0 0 1-5.127-1.163 10.619 10.619 0 0 1-3.679-3.252 14.642 14.642 0 0 1-2.231-5.032 26.558 26.558 0 0 1-.736-6.456 25.772 25.772 0 0 1 .736-6.361 14.16 14.16 0 0 1 2.231-4.937 10.524 10.524 0 0 1 3.7-3.181 11.08 11.08 0 0 1 5.154-1.14 11.338 11.338 0 0 1 5.222 1.139 10.06 10.06 0 0 1 3.679 3.181 14.393 14.393 0 0 1 2.16 4.937 26.627 26.627 0 0 1 .712 6.361 27.44 27.44 0 0 1-.712 6.456 14.615 14.615 0 0 1-2.184 5.032 10.349 10.349 0 0 1-3.679 3.252 11.117 11.117 0 0 1-5.246 1.164zm.047-6.219a3.371 3.371 0 0 0 2.208-.76 5.619 5.619 0 0 0 1.519-2.065 11.485 11.485 0 0 0 .854-3.062 25.91 25.91 0 0 0 .261-3.8 22.6 22.6 0 0 0-.285-3.7 11.327 11.327 0 0 0-.878-2.967 5.259 5.259 0 0 0-1.519-1.97 3.777 3.777 0 0 0-4.415 0 5.252 5.252 0 0 0-1.519 1.97 10.715 10.715 0 0 0-.854 2.967 24.558 24.558 0 0 0-.261 3.7 25.855 25.855 0 0 0 .261 3.8 11.426 11.426 0 0 0 .854 3.062 5.607 5.607 0 0 0 1.519 2.065 3.439 3.439 0 0 0 2.256.757z" class="cls-7" data-name="Path 3294" transform="translate(-363.341 -99)"/>
            </g>
        </g>
    </g>
</svg>
