<svg xmlns="http://www.w3.org/2000/svg" width="2956.83" height="1237.325" viewBox="0 0 2956.83 1237.325">
    <defs>
        <style>
            .cls-1{fill:#f8f9fa}.cls-2{fill:#676767;opacity:.05}
        </style>
    </defs>
    <g id="Group_110" data-name="Group 110" transform="translate(395.83 415.066)">
        <g id="Group_96" data-name="Group 96" transform="translate(-76.818 55)">
            <path id="Path_205" d="M-281.928 326c81.808 132 125.268 370 626.341 436s659.575-412 974.023-402 345.126 334 687.7 374 516.412-84 572.654-234 143.16-574-130.384-724S467.124-534 65.755-442s-429.491 636-347.683 768z" class="cls-1" data-name="Path 205" transform="translate(0 -1)"/>
        </g>
        <path id="Path_206" d="M-372-50c-18 408 0 504 352 644s641 91 907-21 295-199 521-69 284 142 490-10 256-399.424 0-481.424S1260 182 896 192 64.394 47 52.394-145-354-458-372-50z" class="cls-2" data-name="Path 206" transform="translate(287 44)"/>
    </g>
</svg>
