<svg xmlns="http://www.w3.org/2000/svg" width="486.562" height="382.333" viewBox="0 0 486.562 382.333">
    <defs>
        <style>
            .cls-1,.cls-16,.cls-25,.cls-27,.cls-29,.cls-32,.cls-33{fill:none}.cls-2,.cls-4{fill:#1390dd}.cls-2{opacity:.1}.cls-3{clip-path:url(#clip-path)}.cls-5{fill:#ffd8c9}.cls-28,.cls-6{fill:#fff}.cls-7{fill:#3f3f3f}.cls-8{fill:#0e2735;opacity:.15}.cls-9{fill:#e4bdb0}.cls-10{fill:#d8dde1}.cls-11{fill:#383c3d}.cls-12{fill:#171919}.cls-13{fill:#262626}.cls-14{fill:#172d3a}.cls-15{fill:#282828}.cls-16{stroke:#383c3d;stroke-width:2.421px}.cls-16,.cls-25,.cls-27,.cls-32{stroke-miterlimit:10}.cls-17{fill:#515151}.cls-18{clip-path:url(#clip-path-2)}.cls-19{fill:#f7b03d}.cls-20{fill:#f87d7d}.cls-21{fill:#c09c72}.cls-22{fill:#886451}.cls-23{fill:#497883}.cls-24{fill:#e19050}.cls-25{stroke:#e19050;stroke-width:2.124px}.cls-26{fill:#4eb3a8}.cls-27{stroke:#b6887d;stroke-width:1.593px}.cls-28,.cls-29,.cls-32,.cls-33{stroke:#212a34;stroke-linecap:round}.cls-28,.cls-29,.cls-33{stroke-linejoin:round}.cls-28,.cls-29{stroke-width:2px}.cls-30{fill:url(#linear-gradient)}.cls-31{fill:#212a34;font-size:14px;font-family:Anakotmai-Medium,Anakotmai;font-weight:500}.cls-32,.cls-33{stroke-width:3px}.cls-32{stroke-dasharray:7 9}
        </style>
        <clipPath id="clip-path">
            <circle id="Ellipse_4" cx="50.14" cy="50.14" r="50.14" class="cls-1" data-name="Ellipse 4"/>
        </clipPath>
        <clipPath id="clip-path-2">
            <circle id="Ellipse_6" cx="50.925" cy="50.925" r="50.925" class="cls-1" data-name="Ellipse 6"/>
        </clipPath>
        <linearGradient id="linear-gradient" x1="-.563" x2=".787" y1=".473" y2=".497" gradientUnits="objectBoundingBox">
            <stop offset="0"/>
            <stop offset="1" stop-color="#282828"/>
        </linearGradient>
    </defs>
    <g id="Group_98" data-name="Group 98" transform="translate(-925.875 -1832.222)">
        <path id="Path_16" d="M1439.139 473.824c-36.014-4.161-80.632 13.848-92.59 43.209-4.971 12.207-1.035 18.361-9.259 47.067-5.578 19.466-8.366 29.2-15.432 37.036-16.864 18.7-37.435 8.744-59.412 21.6-26.533 15.527-40.787 55.935-33.95 86.418 13.744 61.275 110.685 73.416 116.51 74.072 39.791 4.483 77.966-10.642 154.317-40.894 29.467-11.676 10.433-6.16 97.22-46.3 38.74-17.915 49.871-22.408 58.641-36.265 17.383-27.465 13.863-73.347-10.031-99.534-28.779-31.542-62.164-7.167-126.54-39.351-45.313-22.646-45.622-43.147-79.474-47.058z" class="cls-2" data-name="Path 16" transform="scale(-1) rotate(10.02 15261.338 -15616.06)"/>
        <g id="Group_61" data-name="Group 61" transform="translate(993.643 1904.18)">
            <g id="Group_33" data-name="Group 33" transform="translate(0 60.969)">
                <g id="Group_32" class="cls-3" data-name="Group 32">
                    <circle id="Ellipse_3" cx="69.443" cy="69.443" r="69.443" class="cls-4" data-name="Ellipse 3" transform="translate(-5.415 -16.217)"/>
                    <g id="Group_31" data-name="Group 31" transform="translate(4.308 11.56)">
                        <path id="Path_54" d="M1370.107 837.281l.934 7.784-5.293 5.294-3.425-13.7z" class="cls-5" data-name="Path 54" transform="translate(-1296.181 -694.95)"/>
                        <path id="Path_55" d="M1363.191 835s0-.3.565 2.562c2.161.993 8.47-1.045 8.47-1.045l-.165-4.417z" class="cls-6" data-name="Path 55" transform="translate(-1296.379 -693.909)"/>
                        <path id="Path_56" d="M1367.23 734.961s-1.437 54.036 3.017 76.052c0 0-7 3-10.034 2.343s-8.487-29.806-7.679-46.775 14.696-31.62 14.696-31.62z" class="cls-7" data-name="Path 56" transform="translate(-1293.926 -671.721)"/>
                        <path id="Path_57" d="M1376.944 987.345c0 3.3-20.551 5.979-45.9 5.979s-45.9-2.677-45.9-5.979 20.551-5.979 45.9-5.979 45.9 2.677 45.9 5.979z" class="cls-8" data-name="Path 57" transform="translate(-1278.551 -728.003)"/>
                        <path id="Path_58" d="M1323.767 702.588l.052 19.7 14.176-.044-.648-14.879z" class="cls-9" data-name="Path 58" transform="translate(-1287.374 -664.326)"/>
                        <path id="Path_59" d="M1330.015 964.34l1.6 13.6-5.527 1.706-2.472-14.57z" class="cls-10" data-name="Path 59" transform="translate(-1287.34 -724.114)"/>
                        <path id="Path_60" d="M1317.69 973.846a18.5 18.5 0 0 1-8.305 5.24c-5.008 1.363-9.531 3.095-9.165 5.819 0 0 7.455 3.3 19.547-.37v1.152l7.939-.314v-9.537l-6.6.42.488-.944z" class="cls-11" data-name="Path 60" transform="translate(-1281.99 -726.286)"/>
                        <g id="Group_23" data-name="Group 23" transform="translate(18.216 257.137)">
                            <path id="Path_61" d="M1314.507 987.5c-10.838 2.52-13.589-.277-14.223-.472a1.7 1.7 0 0 0-.063.71s7.455 3.3 19.547-.37v1.152l7.939-.314v-1.9c-2.833.155-5.207-.661-13.2 1.194z" class="cls-12" data-name="Path 61" transform="translate(-1300.208 -986.257)"/>
                        </g>
                        <g id="Group_24" data-name="Group 24" transform="translate(32.816 249.552)">
                            <path id="Path_62" d="M1323.115 979.99a.361.361 0 0 1-.29-.14 7.98 7.98 0 0 0-3.464-2.812.309.309 0 0 1-.21-.4.362.362 0 0 1 .446-.19 8.584 8.584 0 0 1 3.806 3.054.3.3 0 0 1-.095.438.372.372 0 0 1-.193.05z" class="cls-12" data-name="Path 62" transform="translate(-1319.13 -976.428)"/>
                        </g>
                        <g id="Group_25" data-name="Group 25" transform="translate(30.998 250.29)">
                            <path id="Path_63" d="M1320.759 980.947a.36.36 0 0 1-.289-.14 7.994 7.994 0 0 0-3.464-2.812.308.308 0 0 1-.21-.4.36.36 0 0 1 .446-.189 8.572 8.572 0 0 1 3.806 3.054.3.3 0 0 1-.1.437.371.371 0 0 1-.189.05z" class="cls-12" data-name="Path 63" transform="translate(-1316.775 -977.384)"/>
                        </g>
                        <path id="Path_64" d="M1356.681 957.351l.787 17.806 6.026 2.441-.062-19.047z" class="cls-10" data-name="Path 64" transform="translate(-1294.892 -722.518)"/>
                        <path id="Path_65" d="M1364.771 973.857a18.5 18.5 0 0 0 8.076 5.588c4.945 1.574 9.39 3.5 8.908 6.2 0 0-7.588 2.978-19.513-1.2l-.049 1.151-7.919-.651.405-9.528 6.572.7-.448-.964z" class="cls-11" data-name="Path 65" transform="translate(-1294.342 -726.288)"/>
                        <g id="Group_26" data-name="Group 26" transform="translate(59.933 256.76)">
                            <path id="Path_66" d="M1367.494 987.525c10.72 2.978 13.589.3 14.23.133a1.679 1.679 0 0 1 .032.711s-7.588 2.978-19.513-1.2l-.049 1.151-7.919-.651.081-1.9c2.825.275 5.234-.439 13.138 1.756z" class="cls-12" data-name="Path 66" transform="translate(-1354.275 -985.769)"/>
                        </g>
                        <g id="Group_27" data-name="Group 27" transform="translate(68.76 249.667)">
                            <path id="Path_67" d="M1366.05 979.981a.358.358 0 0 0 .3-.127 7.992 7.992 0 0 1 3.58-2.662.308.308 0 0 0 .227-.394.362.362 0 0 0-.438-.208 8.578 8.578 0 0 0-3.932 2.89.3.3 0 0 0 .076.441.368.368 0 0 0 .187.06z" class="cls-12" data-name="Path 67" transform="translate(-1365.715 -976.576)"/>
                        </g>
                        <g id="Group_28" data-name="Group 28" transform="translate(70.544 250.481)">
                            <path id="Path_68" d="M1368.363 981.037a.361.361 0 0 0 .3-.127 7.982 7.982 0 0 1 3.579-2.662.309.309 0 0 0 .228-.394.362.362 0 0 0-.438-.208 8.585 8.585 0 0 0-3.933 2.89.3.3 0 0 0 .077.441.374.374 0 0 0 .187.06z" class="cls-12" data-name="Path 68" transform="translate(-1368.027 -977.631)"/>
                        </g>
                        <path id="Path_69" d="M1305.713 804.133s-5.338 66.312 9.994 129.717c0 0 6.967 4.18 12.541-1.045 0 0 .2-57.05.547-94.323h3.483s3.346 26.284 5.088 34.993 3.092 56.384 5.182 60.215c0 0 6.326 3.393 12.106.31 0 0 1.98-45.882 1.594-60.911-.3-11.576-6.321-60.081-6.321-60.081z" class="cls-13" data-name="Path 69" transform="translate(-1283.044 -687.521)"/>
                        <path id="Path_70" d="M1308.69 793.522s17.2 11.432 38.536 3.854c0 0 4.123-40.754 5.308-64.741a101 101 0 0 0-27.873-5.208c-7.43-.209-17.662 2.774-25.6 4.823-.005 0 6.881 42.986 9.629 61.272z" class="cls-10" data-name="Path 70" transform="translate(-1281.729 -669.997)"/>
                        <path id="Path_71" d="M1327.7 662.654c-9.684 2.113-9.487 8.755-9.487 8.755a59.581 59.581 0 0 0-.507 9.982 3.18 3.18 0 0 0-3.948-1.117c-3.3 1.377-.97 11.762 4.039 10.913a26.581 26.581 0 0 0 1.707 7.187c1.376 2.961 7.51 7.511 12.978 8.264s12.613-3 13.188-9.435c.8-8.909-.548-31.141-.548-31.141s-1.39-6.907-17.422-3.408z" class="cls-5" data-name="Path 71" transform="translate(-1284.735 -654.979)"/>
                        <path id="Path_72" d="M1333.98 685.867c-.027 1.326-.638 2.388-1.366 2.373s-1.3-1.1-1.271-2.425.637-2.388 1.366-2.373 1.297 1.1 1.271 2.425z" class="cls-14" data-name="Path 72" transform="translate(-1289.104 -659.953)"/>
                        <path id="Path_73" d="M1349.388 686.6c-.025 1.326-.637 2.388-1.365 2.373s-1.3-1.1-1.271-2.425.637-2.388 1.365-2.373 1.298 1.101 1.271 2.425z" class="cls-14" data-name="Path 73" transform="translate(-1292.624 -660.121)"/>
                        <path id="Path_74" d="M1332.859 703.629l10.591 1.008s-4.35 5.536-10.591-1.008z" class="cls-6" data-name="Path 74" transform="translate(-1289.451 -664.564)"/>
                        <path id="Path_75" d="M1325.769 666.356c-2.607-.032-7.723 2.571-10.329 2.485.009.019.02.035.028.055.421 1.134.349 12.23.349 12.23a2.331 2.331 0 0 1 2.468 2.427l.306 4.7 2.609-.253.245-9.939c1.774-.916 2.614-5.013 2.614-5.013s1.292-4.925 1.71-6.692z" class="cls-15" data-name="Path 75" transform="translate(-1285.472 -656.05)"/>
                        <path id="Path_76" d="M1329.1 725.543l-1.255 3.648 2.4 3.313-.165 49.007 5.01 6.326 5.641-5.956-5.76-49.623 2.243-4.075-2.87-2.971z" class="cls-11" data-name="Path 76" transform="translate(-1288.306 -669.494)"/>
                        <path id="Path_77" d="M1317.068 726.938l7.35 7.132 3.819-9.91-7.333-3.605z" class="cls-6" data-name="Path 77" transform="translate(-1285.844 -668.43)"/>
                        <path id="Path_78" d="M1345.623 726.5l-4.049 6.132-5.525-8.533 6.183-3.041z" class="cls-6" data-name="Path 78" transform="translate(-1290.179 -668.546)"/>
                        <path id="Path_79" d="M1289.293 732.252a172.059 172.059 0 0 0-12.525 31.983s1.313 4.726 8.1 4.359l14.233-16.9z" class="cls-7" data-name="Path 79" transform="translate(-1276.639 -671.102)"/>
                        <path id="Path_80" d="M1328.925 679.206s4.222-3.255 8.237.162" class="cls-16" data-name="Path 80" transform="translate(-1288.552 -658.666)"/>
                        <path id="Path_81" d="M1345.544 679.885s3.522-3.822 6.933.272" class="cls-16" data-name="Path 81" transform="translate(-1292.348 -658.77)"/>
                        <path id="Path_82" d="M1301.859 773.859l-1.927 35.261s20.039 6.166 26.2 3.082c2.7-10.79 1.979-12.355 1.979-12.355l3.03 10.814s12.279 3.107 20.425-.77c0 0-2.26-30.853-2.26-40.1l4.718-37.17s-8.833-2.265-18.239-4.5l-8.5 38.616-15.722-38.066a98.268 98.268 0 0 0-18.57 2.643z" class="cls-7" data-name="Path 82" transform="translate(-1280.346 -670.157)"/>
                        <path id="Path_83" d="M1330.827 766.893l-15.722-38.066-2 .3-4.624 12.331h6.551l-5.781 3.853s20.035 21.967 21.576 21.582z" class="cls-17" data-name="Path 83" transform="translate(-1283.881 -670.32)"/>
                        <path id="Path_84" d="M1337.444 766.731l8.5-38.616 2.4.063 6.474 11.47-6.473 1.012 6.307 2.914s-15.626 23.299-17.208 23.157z" class="cls-17" data-name="Path 84" transform="translate(-1290.498 -670.157)"/>
                        <path id="Rectangle_6" d="M0 0h2.698v15.607H0z" class="cls-17" data-name="Rectangle 6" transform="rotate(-85.389 77.248 47.837)"/>
                        <path id="Rectangle_7" d="M0 0h15.607v2.698H0z" class="cls-17" data-name="Rectangle 7" transform="rotate(-2.122 3266.533 -1409.117)"/>
                        <g id="Group_30" data-name="Group 30" transform="translate(0 64.536)">
                            <g id="Group_29" data-name="Group 29" transform="translate(30.401)">
                                <path id="Path_85" d="M1326.321 736.641c-1.058.361-2.348.924-3.845 1.578-1.376.6-4.92 3.649-6.475 4.436 1.886 2.671 2.612 3.7 2.841 7.117 3.586-3.991 9.21-8.2 10.318-10.7a8.407 8.407 0 0 1-2.839-2.431z" class="cls-5" data-name="Path 85" transform="translate(-1316.001 -736.641)"/>
                            </g>
                            <path id="Path_86" d="M1321.923 748.054s2.95-2.421 3.136-3.279c-.85-2.851-5.361-5.541-5.361-5.541l-4.253 3.915z" class="cls-6" data-name="Path 86" transform="translate(-1285.473 -737.233)"/>
                            <path id="Path_87" d="M1282.334 756.441s20.5-10.345 26.954-16.052c0 0 4.886 2.964 6.11 6.474 0 0-16.8 20.329-25.9 23.59 0 0-10.122 5.139-12.767-3.425-1.14-3.686 5.603-10.587 5.603-10.587z" class="cls-7" data-name="Path 87" transform="translate(-1276.6 -737.497)"/>
                        </g>
                        <path id="Path_88" d="M1323.959 736.839s1.218-5.149 1.576-5.9c.7-1.459 2.861-1.4 2.861-1.4l-.292 2.452s5.137-1.693 7.006-3.211a3.572 3.572 0 0 1 1.226 2.218 2.829 2.829 0 0 1 .234 1.81 4.049 4.049 0 0 1 .408 1.46c0 .642-9.575 7.18-9.575 7.18z" class="cls-5" data-name="Path 88" transform="translate(-1287.418 -670.309)"/>
                        <path id="Path_89" d="M1326.229 730.425s2.8-2.627 3.445-2.627.817.934-1.051 3.97-2.394-1.343-2.394-1.343z" class="cls-5" data-name="Path 89" transform="translate(-1287.936 -670.085)"/>
                        <path id="Path_90" d="M1324.689 665.814a23.9 23.9 0 0 0 26.291-3.944 17.258 17.258 0 0 0-10.681-5.258 11.8 11.8 0 0 1 4.765 0 24.7 24.7 0 0 0-20.211-2.465c-11.338 3.616-9.7 9.2-8.873 17.253" class="cls-15" data-name="Path 90" transform="translate(-1285.461 -653)"/>
                    </g>
                </g>
            </g>
            <g id="Group_43" data-name="Group 43" transform="translate(263.097 62.498)">
                <g id="Group_42" class="cls-18" data-name="Group 42">
                    <ellipse id="Ellipse_5" cx="80.964" cy="76.959" class="cls-19" data-name="Ellipse 5" rx="80.964" ry="76.959" transform="translate(-30.898 -18.882)"/>
                    <g id="Group_41" data-name="Group 41" transform="translate(-.137 11.607)">
                        <path id="Path_91" d="M1616.667 949.787c0 2.9 15.833 5.244 35.363 5.244s35.364-2.348 35.364-5.244-15.833-5.244-35.364-5.244-35.363 2.347-35.363 5.244z" class="cls-8" data-name="Path 91" transform="translate(-1612.929 -721.169)"/>
                        <path id="Path_92" d="M1683.448 700.048l-.045 17.279-12.432-.038.568-13.049z" class="cls-9" data-name="Path 92" transform="translate(-1625.332 -665.323)"/>
                        <path id="Path_93" d="M1679.584 929.611l-1.406 11.929 4.847 1.5 2.168-12.778z" class="cls-20" data-name="Path 93" transform="translate(-1626.979 -717.758)"/>
                        <path id="Path_94" d="M1685.329 937.948a16.219 16.219 0 0 0 7.285 4.595c4.393 1.2 8.358 2.714 8.038 5.1 0 0-6.538 2.892-17.143-.325v1.012l-6.963-.275v-8.364l5.785.367-.429-.827z" class="cls-21" data-name="Path 94" transform="translate(-1626.605 -719.663)"/>
                        <g id="Group_34" data-name="Group 34" transform="translate(49.939 226.683)">
                            <path id="Path_95" d="M1688.122 949.925c9.505 2.21 11.918-.243 12.473-.414a1.485 1.485 0 0 1 .055.622s-6.538 2.892-17.143-.325v1.012l-6.964-.275v-1.669c2.487.135 4.572-.581 11.579 1.049z" class="cls-22" data-name="Path 95" transform="translate(-1676.544 -948.832)"/>
                        </g>
                        <g id="Group_35" data-name="Group 35" transform="translate(57.453 220.032)">
                            <path id="Path_96" d="M1686.589 943.337a.317.317 0 0 0 .255-.123 7.008 7.008 0 0 1 3.038-2.466.27.27 0 0 0 .184-.354.316.316 0 0 0-.391-.166 7.523 7.523 0 0 0-3.338 2.678.26.26 0 0 0 .083.383.327.327 0 0 0 .169.048z" class="cls-22" data-name="Path 96" transform="translate(-1686.284 -940.212)"/>
                        </g>
                        <g id="Group_36" data-name="Group 36" transform="translate(59.047 220.679)">
                            <path id="Path_97" d="M1688.654 944.175a.314.314 0 0 0 .254-.122 7 7 0 0 1 3.038-2.466.271.271 0 0 0 .184-.354.316.316 0 0 0-.391-.166 7.516 7.516 0 0 0-3.339 2.678.26.26 0 0 0 .084.383.325.325 0 0 0 .17.047z" class="cls-22" data-name="Path 97" transform="translate(-1688.349 -941.051)"/>
                        </g>
                        <g id="Group_40" data-name="Group 40" transform="translate(0 207.96)">
                            <path id="Path_98" d="M1644.8 924.99l-4.479 14.976-5.647.787 4.128-16.187z" class="cls-20" data-name="Path 98" transform="translate(-1617.042 -924.566)"/>
                            <path id="Path_99" d="M1629.364 936.08a16.22 16.22 0 0 1-8.335 2.17c-4.548-.194-8.788.051-9.207 2.426 0 0 5.352 4.738 16.434 4.89l-.307.964 6.719 1.849 2.537-7.97-5.624-1.4.659-.658z" class="cls-21" data-name="Path 99" transform="translate(-1611.822 -927.196)"/>
                            <g id="Group_37" data-name="Group 37" transform="translate(0 12.903)">
                                <path id="Path_100" d="M1623.823 945.466c-9.727-.777-11.283-3.846-11.76-4.177a1.49 1.49 0 0 0-.241.576s5.352 4.738 16.434 4.89l-.307.964 6.719 1.849.506-1.59c-2.41-.624-4.174-1.938-11.351-2.512z" class="cls-22" data-name="Path 100" transform="translate(-1611.822 -941.289)"/>
                            </g>
                            <g id="Group_38" data-name="Group 38" transform="translate(14.506 9.858)">
                                <path id="Path_101" d="M1633.1 941.3a.316.316 0 0 1-.205-.194 7 7 0 0 0-2.146-3.271.271.271 0 0 1-.068-.394.317.317 0 0 1 .423-.039 7.517 7.517 0 0 1 2.369 3.565.261.261 0 0 1-.2.34.331.331 0 0 1-.173-.007z" class="cls-22" data-name="Path 101" transform="translate(-1630.622 -937.343)"/>
                            </g>
                            <g id="Group_39" data-name="Group 39" transform="translate(12.791 9.991)">
                                <path id="Path_102" d="M1630.877 941.476a.314.314 0 0 1-.205-.193 7 7 0 0 0-2.147-3.271.271.271 0 0 1-.068-.394.316.316 0 0 1 .423-.039 7.517 7.517 0 0 1 2.369 3.565.26.26 0 0 1-.2.339.323.323 0 0 1-.172-.007z" class="cls-22" data-name="Path 102" transform="translate(-1628.399 -937.516)"/>
                            </g>
                        </g>
                        <path id="Path_103" d="M1687.042 789.1s.626 56.938-8.765 113.765c0 0-6.11 3.666-11-.917 0 0-.174-50.034-.479-82.723h-3.055s-7.182 28.46-8.71 36.1-8 45.25-9.831 48.61a17.108 17.108 0 0 1-11.2-4.37s5.4-34.883 5.734-48.064c.261-10.152 8.524-54.615 8.524-54.615z" class="cls-23" data-name="Path 103" transform="translate(-1616.889 -685.665)"/>
                        <path id="Path_104" d="M1687.72 771.685c2.786-18.015 7.21-45.623 7.21-45.623-6.967-1.8-15.941-4.413-22.457-4.23a88.561 88.561 0 0 0-24.445 4.568c.669 13.544 2.405 33.171 3.557 45.443q18.068-.054 36.135-.158z" class="cls-10" data-name="Path 104" transform="translate(-1620.092 -670.297)"/>
                        <path id="Path_105" d="M1674.938 665.1c8.493 1.853 8.321 7.678 8.321 7.678a52.358 52.358 0 0 1 .444 8.754 2.789 2.789 0 0 1 3.463-.979c2.9 1.207.85 10.315-3.543 9.571a23.31 23.31 0 0 1-1.5 6.3c-1.207 2.6-6.587 6.588-11.383 7.248s-11.061-2.634-11.566-8.275c-.7-7.813.306-24 .306-24s1.393-9.367 15.458-6.297z" class="cls-5" data-name="Path 105" transform="translate(-1622.582 -657.199)"/>
                        <path id="Path_106" d="M1677.5 685.383c.022 1.162.559 2.094 1.2 2.082s1.137-.965 1.114-2.127-.559-2.094-1.2-2.082-1.137.965-1.114 2.127z" class="cls-14" data-name="Path 106" transform="translate(-1626.823 -661.487)"/>
                        <path id="Path_107" d="M1663.986 686.027c.022 1.162.559 2.094 1.2 2.081s1.137-.964 1.114-2.127-.559-2.095-1.2-2.082-1.137.965-1.114 2.128z" class="cls-14" data-name="Path 107" transform="translate(-1623.737 -661.634)"/>
                        <path id="Path_108" d="M1685.326 669.12c2.286-.028 4.749 1.6 7.035 1.525-.008.017-.018.032-.024.048-.37 1-.307 10.727-.307 10.727a2.044 2.044 0 0 0-2.165 2.129l-.268 4.118-2.286-.217.2-7.4s-1.729-.816-2.048-4.643c-.137-1.644.23-4.737-.137-6.287z" class="cls-24" data-name="Path 108" transform="translate(-1628.611 -658.258)"/>
                        <path id="Path_109" d="M1690.116 721.4l-6.447 6.255-3.349-8.691 6.431-3.162z" class="cls-6" data-name="Path 109" transform="translate(-1627.468 -668.922)"/>
                        <path id="Path_110" d="M1665.487 721.022l3.551 5.378 4.846-7.484-5.422-2.667z" class="cls-6" data-name="Path 110" transform="translate(-1624.08 -669.023)"/>
                        <path id="Path_111" d="M1680.933 678.744s-3.7-2.854-7.224.142" class="cls-25" data-name="Path 111" transform="translate(-1625.958 -660.176)"/>
                        <path id="Path_112" d="M1666.242 680.137s-3.089-3.353-6.081.238" class="cls-25" data-name="Path 112" transform="translate(-1622.863 -660.45)"/>
                        <path id="Path_113" d="M1691.377 760.757l1.1 25.083s-16.492 7.667-23.935 6.274c-.73-7.11-.2-9.585-.2-9.585l-2.657 9.059s-10-1.8-17.142-5.05c0 0 1.212-21.442 1.212-29.19l-.677-33.219a75.373 75.373 0 0 1 12.535-1.693l7.115 25.789 14.126-25.328s9.086 1.141 14.821 4.145z" class="cls-26" data-name="Path 113" transform="translate(-1620.211 -670.436)"/>
                        <path id="Path_114" d="M1668.116 701.9s5.837 1.741 8.3-2.253" class="cls-27" data-name="Path 114" transform="translate(-1624.68 -665.231)"/>
                        <path id="Path_115" d="M1680.269 668.363s-5.872 3.413-11.47 3l4.1-3.277a22.056 22.056 0 0 1-11.47 2.458s-.273-1.775 1.912-4.643a39.757 39.757 0 0 1-5.6 4.37s-2.321-3.96 2.731-10.377a10.333 10.333 0 0 0-2.868 2.048c-.855 1.2 2.185-9.831 19.389-6.144s9.313 22.55 8.616 22.4-5.34-9.835-5.34-9.835z" class="cls-24" data-name="Path 115" transform="translate(-1622.188 -655.043)"/>
                        <path id="Path_116" d="M1665.764 766.9l-4.7-2.64-6.029.143-.581 5.3 3.948-.042s2.428 2.07 10.051 4.137z" class="cls-5" data-name="Path 116" transform="translate(-1621.561 -679.991)"/>
                        <path id="Path_117" d="M1647.158 724.629s-3.513.721-5.589 8.634-1.849 32.517.216 35.573 24 4.172 35.042.419l-13.9-6.9-11.057-2.507s2.676-27.01-4.712-35.219z" class="cls-6" data-name="Path 117" transform="translate(-1618.286 -670.937)"/>
                        <path id="Path_118" d="M1671.027 782.235c3.144-.276 9.538-1.723 12.581-2.348l-15.271-6.673-4.546-1.031a27.348 27.348 0 0 1 7.236 10.052z" class="cls-10" data-name="Path 118" transform="translate(-1623.692 -681.799)"/>
                        <path id="Path_119" d="M1700.948 727.867s6.2 3.518 6.236 13.159-2.586 29.5-8.324 32.315-23.08-4.135-33.187-10.434l1.766-5.175s20.142 4.287 24.469 4.09 3.903-29.13 9.04-33.955z" class="cls-6" data-name="Path 119" transform="translate(-1624.122 -671.677)"/>
                        <path id="Path_120" d="M1690.01 768.811s7.352-6.112 9.6-6.834 14.971-.457 2.029 1.252c0 0 16.188 1.3-.058 1.848 0 0 13.336.946-.368 1.574 0 0 9.093 2.671-.706 1.225l-2.862 1.62s-2.745.658-7.635-.685z" class="cls-5" data-name="Path 120" transform="translate(-1629.681 -679.382)"/>
                    </g>
                </g>
            </g>
            <g id="Group_58" data-name="Group 58" transform="translate(128.829 89.504)">
                <g id="Group_45" data-name="Group 45">
                    <g id="Group_44" data-name="Group 44">
                        <path id="Path_121" d="M1446.625 714.527v-34.289a5.254 5.254 0 0 1 5.238-5.238h50.956a5.254 5.254 0 0 1 5.239 5.238v34.289" class="cls-28" data-name="Path 121" transform="translate(-1439.958 -675)"/>
                        <path id="Path_122" d="M1512.751 726.228a4.3 4.3 0 0 1-4.286 4.286h-66.2a4.3 4.3 0 0 1-4.286-4.286h74.767z" class="cls-29" data-name="Path 122" transform="translate(-1437.984 -686.701)"/>
                        <path id="Line_1" d="M0 0h8.541" class="cls-29" data-name="Line 1" transform="translate(33.113 41.432)"/>
                    </g>
                </g>
                <g id="Group_51" data-name="Group 51" transform="translate(27.537 7.051)">
                    <g id="Group_50" data-name="Group 50">
                        <path id="Path_123" d="M1493.041 686.617q-4.8 6.173-9.611 12.347-4.789-5.087-9.585-10.17c-.068.008-.1.01-.172.02v21.616q9.773-1.106 19.541-2.216V686.6c-.069 0-.099.01-.173.017z" class="cls-15" data-name="Path 123" transform="translate(-1473.673 -684.699)"/>
                        <g id="Group_49" data-name="Group 49" transform="translate(6.397)">
                            <g id="Group_46" data-name="Group 46" transform="translate(2.642 6.107)">
                                <path id="Path_124" d="M1486.638 692.213a.631.631 0 0 1 .216.491.792.792 0 0 1-.216.545.824.824 0 0 1-.518.272.64.64 0 0 1-.732-.652.789.789 0 0 1 .213-.539.778.778 0 0 1 .519-.273.65.65 0 0 1 .518.156z" class="cls-15" data-name="Path 124" transform="translate(-1485.388 -692.052)"/>
                            </g>
                            <g id="Group_47" data-name="Group 47" transform="translate(2.642 3.32)">
                                <path id="Path_125" d="M1486.638 688.6a.623.623 0 0 1 .216.491.782.782 0 0 1-.216.541.8.8 0 0 1-.518.275.637.637 0 0 1-.732-.651.79.79 0 0 1 .213-.539.778.778 0 0 1 .519-.273.644.644 0 0 1 .518.156z" class="cls-15" data-name="Path 125" transform="translate(-1485.388 -688.441)"/>
                            </g>
                            <path id="Path_126" d="M1488.652 684.146q-1.657 1.319-3.318 2.638-1.656-.941-3.311-1.887c-.024 0-.036.005-.059.007v5.88l.059-.006q1.658-1.323 3.321-2.641 1.654.946 3.308 1.889a.444.444 0 0 0 .06-.005v-5.883a.459.459 0 0 1-.06.008z" class="cls-15" data-name="Path 126" transform="translate(-1481.964 -684.138)"/>
                            <g id="Group_48" data-name="Group 48" transform="translate(2.642 8.846)">
                                <path id="Path_127" d="M1486.638 695.763a.622.622 0 0 1 .216.49.792.792 0 0 1-.216.546.808.808 0 0 1-.518.272.639.639 0 0 1-.732-.651.788.788 0 0 1 .213-.54.777.777 0 0 1 .519-.272.65.65 0 0 1 .518.155z" class="cls-15" data-name="Path 127" transform="translate(-1485.388 -695.603)"/>
                            </g>
                        </g>
                    </g>
                    <path id="Path_128" d="M1486.31 700.031l6.422 6.495.4-15.24z" class="cls-30" data-name="Path 128" transform="translate(-1476.559 -685.771)"/>
                </g>
                <rect id="Rectangle_8" width="18.518" height="30.863" class="cls-28" data-name="Rectangle 8" rx="2" transform="translate(77.171 12.345)"/>
                <path id="Line_2" d="M0 0h3.086" class="cls-29" data-name="Line 2" transform="translate(84.887 14.66)"/>
                <g id="Group_57" data-name="Group 57" transform="translate(82.605 22.405)">
                    <g id="Group_56" data-name="Group 56">
                        <path id="Path_129" d="M1552.658 705.011l-3.778 4.854-3.769-4-.068.008v8.5l7.682-.871V705a.626.626 0 0 1-.067.011z" class="cls-15" data-name="Path 129" transform="translate(-1545.043 -704.258)"/>
                        <g id="Group_55" data-name="Group 55" transform="translate(2.515)">
                            <g id="Group_52" data-name="Group 52" transform="translate(1.039 2.4)">
                                <path id="Path_130" d="M1550.141 707.212a.248.248 0 0 1 .085.193.309.309 0 0 1-.085.214.323.323 0 0 1-.2.107.243.243 0 0 1-.2-.062.247.247 0 0 1-.083-.194.33.33 0 0 1 .288-.319.258.258 0 0 1 .195.061z" class="cls-15" data-name="Path 130" transform="translate(-1549.649 -707.149)"/>
                            </g>
                            <g id="Group_53" data-name="Group 53" transform="translate(1.039 1.305)">
                                <path id="Path_131" d="M1550.141 705.792a.245.245 0 0 1 .085.193.308.308 0 0 1-.085.213.317.317 0 0 1-.2.108.25.25 0 0 1-.288-.256.309.309 0 0 1 .083-.211.3.3 0 0 1 .2-.107.252.252 0 0 1 .205.06z" class="cls-15" data-name="Path 131" transform="translate(-1549.649 -705.729)"/>
                            </g>
                            <path id="Path_132" d="M1550.932 704.041l-1.3 1.037q-.651-.369-1.3-.741h-.023v2.312h.023l1.306-1.039 1.3.743h.024v-2.312z" class="cls-15" data-name="Path 132" transform="translate(-1548.303 -704.038)"/>
                            <g id="Group_54" data-name="Group 54" transform="translate(1.039 3.477)">
                                <path id="Path_133" d="M1550.141 708.608a.243.243 0 0 1 .085.192.312.312 0 0 1-.085.214.319.319 0 0 1-.2.107.251.251 0 0 1-.288-.256.31.31 0 0 1 .083-.212.3.3 0 0 1 .2-.107.255.255 0 0 1 .205.062z" class="cls-15" data-name="Path 133" transform="translate(-1549.649 -708.545)"/>
                            </g>
                        </g>
                    </g>
                    <path id="Path_134" d="M1550.011 710.285l2.525 2.553.155-5.991z" class="cls-30" data-name="Path 134" transform="translate(-1546.178 -704.68)"/>
                </g>
                <path id="Line_3" d="M0 0h17.746" class="cls-29" data-name="Line 3" transform="translate(77.171 40.978)"/>
            </g>
            <text id="นิติบุคคล" class="cls-31" transform="translate(42.955 190.71)">
                <tspan x="-26.747" y="0">นิติบุคคล</tspan>
            </text>
            <text id="กรรมการ_ลูกบ้าน" class="cls-31" data-name="กรรมการ/ลูกบ้าน" transform="translate(316.381 183.797)">
                <tspan x="-51.982" y="0">กรรมการ/ลูกบ้าน</tspan>
            </text>
            <g id="Group_59" data-name="Group 59" transform="translate(102.929 15.45)">
                <path id="Path_135" d="M1543.917 598.912a94.744 94.744 0 0 0-156.425 2.773" class="cls-32" data-name="Path 135" transform="translate(-1387.492 -559)"/>
                <path id="Path_136" d="M1627.126 618.427l-.986 6-6-.986" class="cls-33" data-name="Path 136" transform="translate(-1466.035 -579.063)"/>
            </g>
            <g id="Group_60" data-name="Group 60" transform="translate(100.279 157.544)">
                <path id="Path_137" d="M1390.537 780.332a94.744 94.744 0 0 0 156.425-2.773" class="cls-32" data-name="Path 137" transform="translate(-1385.87 -774.88)"/>
                <path id="Path_138" d="M1383.492 779.515l.986-6 6 .986" class="cls-33" data-name="Path 138" transform="translate(-1383.492 -773.515)"/>
            </g>
        </g>
    </g>
</svg>
