<svg xmlns="http://www.w3.org/2000/svg" width="566.1" height="352.333" viewBox="0 0 566.1 352.333">
    <defs>
        <style>
            .cls-1{opacity:.05}.cls-2{fill:#ca9761}.cls-3{fill:#d8b268}.cls-4{fill:#e3bb6d}.cls-5{fill:#f0c673}.cls-6{fill:#f0daaf}.cls-7{fill:#cab093}.cls-8{fill:#ac7c47}.cls-9{fill:#fbf2d2}.cls-10{fill:#fff6d6}.cls-11{fill:#fff}.cls-12{fill:#5b677e}
        </style>
    </defs>
    <g id="Group_209" data-name="Group 209" transform="translate(-129.36 -302.606)">
        <g id="Group_186" data-name="Group 186" transform="translate(129.36 302.607)">
            <path id="Path_437" d="M165.9 494.056l79.32-5.324 181.441-90.17L331.8 357.1z" class="cls-1" data-name="Path 437" transform="translate(-65.898 -207.961)"/>
            <g id="Group_185" data-name="Group 185">
                <g id="Group_168" data-name="Group 168">
                    <g id="Group_167" data-name="Group 167">
                        <path id="Path_438" d="M368.7 458.508l-202.567 98.1-.007-137.555 202.574-98.06z" class="cls-2" data-name="Path 438" transform="translate(-65.497 -270.673)"/>
                        <path id="Path_439" d="M230 526.293l-100.64-50.331V338.447L230 388.778z" class="cls-3" data-name="Path 439" transform="translate(-129.36 -240.357)"/>
                        <path id="Path_440" d="M432.566 352.926L230 451.018l-100.64-50.372 202.567-98.04z" class="cls-4" data-name="Path 440" transform="translate(-129.359 -302.607)"/>
                        <g id="Group_164" data-name="Group 164" transform="translate(0 97.976)">
                            <path id="Path_441" d="M230 389.08l-100.64-50.332v-.229l.229-.114L230 388.623z" class="cls-5" data-name="Path 441" transform="translate(-129.36 -338.405)"/>
                        </g>
                        <g id="Group_165" data-name="Group 165" transform="translate(100.64 50.204)">
                            <path id="Path_442" d="M166.132 419.4l202.567-98.1v-.228l-.229-.114-202.337 97.982z" class="cls-6" data-name="Path 442" transform="translate(-166.132 -320.95)"/>
                        </g>
                        <path id="Path_443" d="M166.132 419.095l202.568-98.1z" class="cls-7" data-name="Path 443" transform="translate(-65.492 -270.674)"/>
                        <g id="Group_166" data-name="Group 166" transform="translate(98.095 148.421)">
                            <path id="Path_444" d="M167.747 369.246v-12.409s-5.726 76.35 0 137.516v-52.638a507.035 507.035 0 0 1 0-72.469z" class="cls-2" data-name="Path 444" transform="translate(-165.202 -356.837)"/>
                            <path id="Path_445" d="M166.944 487.767v-130.2c-1.106 14.043-2.217 97.084 0 130.2z" class="cls-8" data-name="Path 445" transform="translate(-164.399 -355.574)"/>
                        </g>
                    </g>
                    <path id="Path_446" d="M158.458 405.105l-14.523-7.263v-52.008l14.523 7.263z" class="cls-9" data-name="Path 446" transform="translate(-104.045 -227.527)"/>
                    <path id="Path_447" d="M143.932 407.959l14.523 7.262 203.534-97.891-14.523-7.261z" class="cls-10" data-name="Path 447" transform="translate(-104.05 -289.647)"/>
                </g>
                <g id="Group_170" data-name="Group 170" transform="translate(5.741 117.503)">
                    <path id="Path_448" d="M159.845 368.755l-25.392-7.389-3-15.826 25.392 7.389z" class="cls-11" data-name="Path 448" transform="translate(-131.457 -345.54)"/>
                    <g id="Group_169" data-name="Group 169" transform="translate(4.034 3.801)">
                        <path id="Path_449" d="M135.492 357.374l-.617-.18-1.943-10.266.617.18z" class="cls-12" data-name="Path 449" transform="translate(-132.932 -346.929)"/>
                        <path id="Path_450" d="M135.557 357.393l-.308-.09-1.949-10.265.308.09z" class="cls-12" data-name="Path 450" transform="translate(-132.283 -346.74)"/>
                        <path id="Path_451" d="M135.818 357.469l-.308-.09-1.943-10.266.308.09z" class="cls-12" data-name="Path 451" transform="translate(-131.83 -346.608)"/>
                        <path id="Path_452" d="M136.078 357.545l-.308-.09-1.944-10.266.309.09z" class="cls-12" data-name="Path 452" transform="translate(-131.378 -346.477)"/>
                        <path id="Path_453" d="M136.339 357.621l-.309-.09-1.943-10.266.308.09z" class="cls-12" data-name="Path 453" transform="translate(-130.925 -346.345)"/>
                        <path id="Path_454" d="M136.908 357.786l-.617-.18-1.943-10.266.617.179z" class="cls-12" data-name="Path 454" transform="translate(-130.472 -346.213)"/>
                        <path id="Path_455" d="M137.72 358.023l-.309-.09-1.943-10.266.308.09z" class="cls-12" data-name="Path 455" transform="translate(-128.526 -345.647)"/>
                        <path id="Path_456" d="M137.98 358.1l-.308-.09-1.943-10.266.308.09z" class="cls-12" data-name="Path 456" transform="translate(-128.074 -345.515)"/>
                        <path id="Path_457" d="M138.55 358.264l-.617-.179-1.943-10.266.617.18z" class="cls-12" data-name="Path 457" transform="translate(-127.621 -345.384)"/>
                        <path id="Path_458" d="M137.282 357.9l-.617-.18-1.943-10.266.617.18z" class="cls-12" data-name="Path 458" transform="translate(-129.823 -346.025)"/>
                        <path id="Path_459" d="M137.655 358l-.617-.18-1.943-10.266.617.18z" class="cls-12" data-name="Path 459" transform="translate(-129.175 -345.836)"/>
                        <path id="Path_460" d="M138.923 358.373l-.617-.179-1.944-10.266.617.18z" class="cls-12" data-name="Path 460" transform="translate(-126.972 -345.195)"/>
                        <path id="Path_461" d="M138.988 358.391l-.308-.09-1.943-10.266.308.09z" class="cls-12" data-name="Path 461" transform="translate(-126.324 -345.006)"/>
                        <path id="Path_462" d="M139.249 358.468l-.308-.09L137 348.112l.309.09z" class="cls-12" data-name="Path 462" transform="translate(-125.871 -344.874)"/>
                        <path id="Path_463" d="M139.51 358.543l-.309-.09-1.943-10.266.308.09z" class="cls-12" data-name="Path 463" transform="translate(-125.418 -344.743)"/>
                        <path id="Path_464" d="M139.77 358.619l-.308-.09-1.943-10.266.308.09z" class="cls-12" data-name="Path 464" transform="translate(-124.965 -344.611)"/>
                        <path id="Path_465" d="M140.339 358.785l-.617-.18-1.943-10.266.617.18z" class="cls-12" data-name="Path 465" transform="translate(-124.513 -344.479)"/>
                        <path id="Path_466" d="M141.151 359.021l-.308-.09-1.943-10.266.308.09z" class="cls-12" data-name="Path 466" transform="translate(-122.567 -343.913)"/>
                        <path id="Path_467" d="M141.412 359.1l-.308-.09-1.944-10.266.309.09z" class="cls-12" data-name="Path 467" transform="translate(-122.114 -343.781)"/>
                        <path id="Path_468" d="M141.981 359.263l-.617-.18-1.944-10.266.617.18z" class="cls-12" data-name="Path 468" transform="translate(-121.662 -343.65)"/>
                        <path id="Path_469" d="M140.712 358.894l-.617-.18-1.943-10.266.617.18z" class="cls-12" data-name="Path 469" transform="translate(-123.864 -344.29)"/>
                        <path id="Path_470" d="M141.086 359l-.617-.18-1.943-10.266.617.18z" class="cls-12" data-name="Path 470" transform="translate(-123.216 -344.102)"/>
                    </g>
                </g>
                <path id="Path_471" d="M183.765 383.737l-31.879-15.943v-15.16l31.879 15.943z" class="cls-11" data-name="Path 471" transform="translate(-90.235 -215.717)"/>
                <g id="Group_182" data-name="Group 182" transform="translate(2.896 220.318)">
                    <g id="Group_174" data-name="Group 174">
                        <path id="Path_472" d="M142.509 388.863l-11.33-5.663c-.419-.211-.761-.041-.761.38v11.328a1.43 1.43 0 0 0 .761 1.141l11.331 5.665c.419.211.761.041.761-.38V390a1.438 1.438 0 0 0-.762-1.137zm.167 11.558c0 .432-.35.608-.783.391l-10.1-5.05a1.472 1.472 0 0 1-.783-1.174v-10.1c0-.432.35-.608.783-.391l10.1 5.052a1.468 1.468 0 0 1 .783 1.171z" class="cls-12" data-name="Path 472" transform="translate(-130.418 -383.107)"/>
                        <g id="Group_173" data-name="Group 173" transform="translate(3.03 3.372)">
                            <g id="Group_171" data-name="Group 171">
                                <path id="Path_473" d="M132.467 392.78l-.716-.358v-7.776l.716.358z" class="cls-12" data-name="Path 473" transform="translate(-131.134 -383.807)"/>
                                <path id="Path_474" d="M132.5 384.339l-.975 1.465.975.487.975.487z" class="cls-12" data-name="Path 474" transform="translate(-131.525 -384.339)"/>
                            </g>
                            <g id="Group_172" data-name="Group 172" transform="translate(4.843 2.422)">
                                <path id="Path_475" d="M134.236 393.665l-.716-.358v-7.777l.716.358z" class="cls-12" data-name="Path 475" transform="translate(-132.904 -384.692)"/>
                                <path id="Path_476" d="M134.269 385.224l-.974 1.465.974.487.975.487z" class="cls-12" data-name="Path 476" transform="translate(-133.295 -385.224)"/>
                            </g>
                        </g>
                        <path id="Path_477" d="M131.157 388.033v-.716l8.807 4.4v.716z" class="cls-12" data-name="Path 477" transform="translate(-129.135 -375.794)"/>
                    </g>
                    <g id="Group_176" data-name="Group 176" transform="translate(15.239 7.62)">
                        <path id="Path_478" d="M148.075 391.646l-11.328-5.665c-.421-.211-.761-.038-.761.38v11.328a1.432 1.432 0 0 0 .761 1.144l11.328 5.665c.421.208.761.038.761-.38V392.79a1.432 1.432 0 0 0-.761-1.144zm.167 11.56c0 .433-.35.608-.783.391l-10.1-5.052a1.472 1.472 0 0 1-.783-1.174v-10.1c0-.432.35-.608.783-.391l10.1 5.052a1.472 1.472 0 0 1 .783 1.174z" class="cls-12" data-name="Path 478" transform="translate(-135.986 -385.891)"/>
                        <g id="Group_175" data-name="Group 175" transform="translate(2.02 2.132)">
                            <path id="Path_479" d="M140.408 394.245a3.264 3.264 0 0 1-1.732-2.6v-4l3.465 1.732v4c0 .961-.775 1.347-1.733.868z" class="cls-12" data-name="Path 479" transform="translate(-133.334 -384.975)"/>
                            <path id="Path_480" d="M139.641 394.346l-.405-.2v-4.185l.405.2z" class="cls-12" data-name="Path 480" transform="translate(-132.362 -380.958)"/>
                            <path id="Path_481" d="M138.676 391.47c0-.224.183-.315.405-.2l2.655 1.327a.764.764 0 0 1 .405.608z" class="cls-12" data-name="Path 481" transform="translate(-133.334 -378.768)"/>
                            <path id="Path_482" d="M136.724 386.67v4a3.264 3.264 0 0 0 1.732 2.6c.958.479 1.732.09 1.732-.865v-4zm3.109 5.556c0 .758-.616 1.067-1.377.687a2.6 2.6 0 0 1-1.377-2.064V387.2l2.753 1.377z" class="cls-12" data-name="Path 482" transform="translate(-136.724 -386.67)"/>
                            <path id="Path_483" d="M137.689 393.37l-.406-.2v-4.185l.406.2z" class="cls-12" data-name="Path 483" transform="translate(-135.753 -382.654)"/>
                            <path id="Path_484" d="M136.724 390.494c0-.224.183-.315.405-.2l2.655 1.327a.764.764 0 0 1 .405.608z" class="cls-12" data-name="Path 484" transform="translate(-136.724 -380.464)"/>
                        </g>
                    </g>
                    <g id="Group_181" data-name="Group 181" transform="translate(30.475 15.242)">
                        <path id="Path_485" d="M153.642 394.432l-11.328-5.665c-.421-.211-.761-.041-.761.38v11.328a1.432 1.432 0 0 0 .761 1.141l11.328 5.665c.421.211.761.038.761-.38v-11.328a1.424 1.424 0 0 0-.761-1.141zm.17 11.558c0 .432-.35.608-.783.391l-10.1-5.052a1.473 1.473 0 0 1-.783-1.174v-10.1c0-.432.35-.608.783-.391l10.1 5.05a1.472 1.472 0 0 1 .783 1.174z" class="cls-12" data-name="Path 485" transform="translate(-141.553 -388.676)"/>
                        <g id="Group_180" data-name="Group 180" transform="translate(2.682 4.541)">
                            <g id="Group_178" data-name="Group 178" transform="translate(0 .15)">
                                <g id="Group_177" data-name="Group 177">
                                    <path id="Path_486" d="M143.973 393.647a1.571 1.571 0 0 1 1.229.156 3.549 3.549 0 0 1 1.226 1.073 1.57 1.57 0 0 1 1.229.156 3.55 3.55 0 0 1 1.229 1.07 1.568 1.568 0 0 1 1.226.159 2.406 2.406 0 0 1 .3.175 7.583 7.583 0 0 0-3.941-5.578c-2.064-1.032-3.755-.3-3.938 1.623.068.027.14.057.213.1a3.512 3.512 0 0 1 1.227 1.066z" class="cls-12" data-name="Path 486" transform="translate(-142.533 -390.39)"/>
                                </g>
                            </g>
                            <g id="Group_179" data-name="Group 179" transform="translate(2.047)">
                                <path id="Path_487" d="M144.335 399.993a1.986 1.986 0 0 1-1.054-1.582v-.2c0-.118.1-.167.216-.107a.406.406 0 0 1 .216.326v.2a1.172 1.172 0 0 0 .621.933c.342.17.621.033.621-.312v-8.78c0-.12.1-.167.216-.11a.41.41 0 0 1 .216.326v8.782c.001.579-.469.814-1.052.524z" class="cls-12" data-name="Path 487" transform="translate(-143.281 -390.335)"/>
                            </g>
                        </g>
                    </g>
                </g>
                <g id="Group_183" data-name="Group 183" transform="translate(181.124 13.387)">
                    <path id="Path_488" d="M223.154 307.915l-26.781 13.391-.833-.417 26.781-13.389z" class="cls-12" data-name="Path 488" transform="translate(-195.54 -307.498)"/>
                    <path id="Path_489" d="M224.115 308.395l-26.781 13.391-.833-.417 26.781-13.391z" class="cls-12" data-name="Path 489" transform="translate(-193.872 -306.664)"/>
                    <path id="Path_490" d="M225.075 308.875l-26.781 13.391-.833-.417 26.781-13.391z" class="cls-12" data-name="Path 490" transform="translate(-192.204 -305.83)"/>
                    <path id="Path_491" d="M226.035 309.355l-26.781 13.391-.833-.417 26.779-13.391z" class="cls-12" data-name="Path 491" transform="translate(-190.536 -304.996)"/>
                </g>
                <g id="Group_184" data-name="Group 184" transform="translate(82.891 118.779)">
                    <path id="Path_492" d="M187.262 346.423l-26.782 13.391-.833-.417 26.782-13.391z" class="cls-12" data-name="Path 492" transform="translate(-159.647 -346.007)"/>
                    <path id="Path_493" d="M188.222 346.9l-26.781 13.391-.833-.417 26.781-13.391z" class="cls-12" data-name="Path 493" transform="translate(-157.979 -345.173)"/>
                    <path id="Path_494" d="M189.182 347.384l-26.782 13.39-.833-.417 26.782-13.391z" class="cls-12" data-name="Path 494" transform="translate(-156.311 -344.339)"/>
                    <path id="Path_495" d="M190.143 347.864l-26.781 13.391-.833-.417 26.782-13.391z" class="cls-12" data-name="Path 495" transform="translate(-154.643 -343.505)"/>
                </g>
            </g>
        </g>
        <g id="Group_208" data-name="Group 208" transform="translate(240.292 419.863)">
            <path id="Path_496" d="M212.753 542l79.319-5.324 258.546-127.582-94.858-41.463z" class="cls-1" data-name="Path 496" transform="translate(-95.45 -306.925)"/>
            <g id="Group_207" data-name="Group 207">
                <g id="Group_190" data-name="Group 190">
                    <g id="Group_189" data-name="Group 189">
                        <path id="Path_497" d="M496.361 401.382L212.766 542.876l-.013-34.606 283.608-141.422z" class="cls-2" data-name="Path 497" transform="translate(-95.45 -308.286)"/>
                        <path id="Path_498" d="M287.209 490.259l-117.316-58.583v-34.534l117.316 58.582z" class="cls-3" data-name="Path 498" transform="translate(-169.893 -255.669)"/>
                        <path id="Path_499" d="M570.8 404.012L287.209 545.486l-117.316-58.655L453.488 345.45z" class="cls-4" data-name="Path 499" transform="translate(-169.892 -345.45)"/>
                        <g id="Group_187" data-name="Group 187" transform="translate(0 141.267)">
                            <path id="Path_500" d="M287.209 456.266l-117.316-58.584v-.41l.411-.205 116.906 58.379z" class="cls-5" data-name="Path 500" transform="translate(-169.893 -397.067)"/>
                        </g>
                        <g id="Group_188" data-name="Group 188" transform="translate(117.316 58.354)">
                            <path id="Path_501" d="M212.758 508.885l283.595-141.5v-.41l-.411-.205-283.183 141.294z" class="cls-6" data-name="Path 501" transform="translate(-212.758 -366.772)"/>
                        </g>
                        <path id="Path_502" d="M212.758 508.342l283.593-141.5z" class="cls-7" data-name="Path 502" transform="translate(-95.442 -308.287)"/>
                    </g>
                    <path id="Path_503" d="M211.422 438.414l-26.07-13.038v-20.17l26.07 13.038z" class="cls-9" data-name="Path 503" transform="translate(-143.042 -241.662)"/>
                    <path id="Path_504" d="M185.346 494.764l26.07 13.035 285.332-141.115-26.071-13.035z" class="cls-10" data-name="Path 504" transform="translate(-143.052 -331.209)"/>
                </g>
                <g id="Group_192" data-name="Group 192" transform="translate(22.955 116.155)">
                    <path id="Path_505" d="M249.686 402.133l-42.352 21.352-29.054-14.242 42.352-21.352z" class="cls-11" data-name="Path 505" transform="translate(-178.28 -387.891)"/>
                    <g id="Group_191" data-name="Group 191" transform="translate(10.955 5.452)">
                        <path id="Path_506" d="M202.159 404.578l-1.029.519-18.847-9.239 1.029-.519z" class="cls-12" data-name="Path 506" transform="translate(-182.283 -380.406)"/>
                        <path id="Path_507" d="M202.267 404.359l-.514.259-18.847-9.239.515-.259z" class="cls-12" data-name="Path 507" transform="translate(-181.201 -380.787)"/>
                        <path id="Path_508" d="M202.7 404.14l-.515.259-18.845-9.239.515-.259z" class="cls-12" data-name="Path 508" transform="translate(-180.446 -381.168)"/>
                        <path id="Path_509" d="M203.137 403.92l-.515.26-18.847-9.239.515-.259z" class="cls-12" data-name="Path 509" transform="translate(-179.691 -381.548)"/>
                        <path id="Path_510" d="M203.572 403.7l-.515.26-18.847-9.239.515-.26z" class="cls-12" data-name="Path 510" transform="translate(-178.936 -381.929)"/>
                        <path id="Path_511" d="M204.521 403.387l-1.029.519-18.847-9.239 1.029-.519z" class="cls-12" data-name="Path 511" transform="translate(-178.18 -382.475)"/>
                        <path id="Path_512" d="M205.875 402.54l-.515.259-18.847-9.238.515-.26z" class="cls-12" data-name="Path 512" transform="translate(-174.935 -383.946)"/>
                        <path id="Path_513" d="M206.31 402.321l-.515.26-18.847-9.239.515-.259z" class="cls-12" data-name="Path 513" transform="translate(-174.18 -384.327)"/>
                        <path id="Path_514" d="M207.259 402.007l-1.029.519-18.847-9.239 1.029-.519z" class="cls-12" data-name="Path 514" transform="translate(-173.425 -384.872)"/>
                        <path id="Path_515" d="M205.144 403.073l-1.029.519-18.847-9.239 1.029-.519z" class="cls-12" data-name="Path 515" transform="translate(-177.099 -383.02)"/>
                        <path id="Path_516" d="M205.766 402.759l-1.029.519-18.847-9.238 1.029-.519z" class="cls-12" data-name="Path 516" transform="translate(-176.017 -383.565)"/>
                        <path id="Path_517" d="M207.882 401.693l-1.029.519-18.847-9.239 1.029-.519z" class="cls-12" data-name="Path 517" transform="translate(-172.343 -385.417)"/>
                        <path id="Path_518" d="M207.99 401.474l-.515.259-18.847-9.238.515-.259z" class="cls-12" data-name="Path 518" transform="translate(-171.262 -385.798)"/>
                        <path id="Path_519" d="M208.424 401.254l-.514.259-18.847-9.239.515-.259z" class="cls-12" data-name="Path 519" transform="translate(-170.506 -386.179)"/>
                        <path id="Path_520" d="M208.859 401.035l-.515.259-18.844-9.238.515-.259z" class="cls-12" data-name="Path 520" transform="translate(-169.751 -386.559)"/>
                        <path id="Path_521" d="M209.294 400.816l-.515.259-18.847-9.238.515-.259z" class="cls-12" data-name="Path 521" transform="translate(-168.996 -386.94)"/>
                        <path id="Path_522" d="M210.244 400.5l-1.029.519-18.847-9.239 1.029-.519z" class="cls-12" data-name="Path 522" transform="translate(-168.241 -387.486)"/>
                        <path id="Path_523" d="M211.6 399.655l-.515.259-18.847-9.238.514-.259z" class="cls-12" data-name="Path 523" transform="translate(-164.996 -388.957)"/>
                        <path id="Path_524" d="M212.032 399.436l-.514.259-18.847-9.239.515-.259z" class="cls-12" data-name="Path 524" transform="translate(-164.241 -389.338)"/>
                        <path id="Path_525" d="M212.982 399.122l-1.029.519-18.848-9.241 1.029-.519z" class="cls-12" data-name="Path 525" transform="translate(-163.486 -389.883)"/>
                        <path id="Path_526" d="M210.866 400.188l-1.029.519-18.847-9.238 1.029-.519z" class="cls-12" data-name="Path 526" transform="translate(-167.159 -388.031)"/>
                        <path id="Path_527" d="M211.489 399.874l-1.029.519-18.847-9.239 1.029-.519z" class="cls-12" data-name="Path 527" transform="translate(-166.077 -388.576)"/>
                    </g>
                </g>
                <path id="Path_528" d="M285.593 387.125l-57.225 28.612-27.215-13.607 57.225-28.613z" class="cls-11" data-name="Path 528" transform="translate(-115.598 -296.701)"/>
                <g id="Group_204" data-name="Group 204" transform="translate(293.581 51.438)">
                    <g id="Group_196" data-name="Group 196" transform="translate(0 21.944)">
                        <path id="Path_529" d="M293.93 372.488l-16.314 8.159c-.6.3-.6.791 0 1.095l16.314 8.158a2.774 2.774 0 0 0 2.192 0l16.314-8.159c.6-.3.6-.794 0-1.095l-16.314-8.159a2.773 2.773 0 0 0-2.192.001zm16.766 8.142c.624.312.624.816 0 1.128l-14.544 7.272a2.828 2.828 0 0 1-2.252 0l-14.544-7.272c-.624-.312-.624-.816 0-1.128l14.544-7.272a2.828 2.828 0 0 1 2.252 0z" class="cls-12" data-name="Path 529" transform="translate(-277.162 -372.263)"/>
                        <g id="Group_195" data-name="Group 195" transform="translate(7.515 3.757)">
                            <g id="Group_193" data-name="Group 193" transform="translate(0 3.487)">
                                <path id="Path_530" d="M292.485 380.682l-1.031.516-11.2-5.6 1.031-.516z" class="cls-12" data-name="Path 530" transform="translate(-279.305 -374.608)"/>
                                <path id="Path_531" d="M279.908 374.909l1.408 2.108 1.4-.7 1.4-.7z" class="cls-12" data-name="Path 531" transform="translate(-279.908 -374.909)"/>
                            </g>
                            <g id="Group_194" data-name="Group 194" transform="translate(6.974)">
                                <path id="Path_532" d="M295.034 379.408l-1.031.516-11.2-5.6 1.031-.516z" class="cls-12" data-name="Path 532" transform="translate(-281.853 -373.334)"/>
                                <path id="Path_533" d="M282.456 373.635l1.408 2.107 1.4-.7 1.4-.7z" class="cls-12" data-name="Path 533" transform="translate(-282.456 -373.635)"/>
                            </g>
                        </g>
                        <path id="Path_534" d="M284.707 382.376l-1.031-.516 12.684-6.342 1.031.516z" class="cls-12" data-name="Path 534" transform="translate(-265.85 -366.607)"/>
                    </g>
                    <g id="Group_198" data-name="Group 198" transform="translate(21.944 10.972)">
                        <path id="Path_535" d="M301.948 368.479l-16.314 8.159c-.6.3-.6.794 0 1.095l16.314 8.159a2.774 2.774 0 0 0 2.192 0l16.314-8.159c.6-.3.6-.794 0-1.095l-16.314-8.159a2.774 2.774 0 0 0-2.192 0zm16.766 8.142c.621.312.621.816 0 1.128l-14.544 7.272a2.835 2.835 0 0 1-2.255 0l-14.544-7.272c-.621-.312-.621-.816 0-1.128l14.544-7.272a2.834 2.834 0 0 1 2.255 0z" class="cls-12" data-name="Path 535" transform="translate(-285.18 -368.254)"/>
                        <g id="Group_197" data-name="Group 197" transform="translate(4.296 2.15)">
                            <path id="Path_536" d="M300.315 374.414a6.279 6.279 0 0 1-4.992 0l-5.761-2.882 4.989-2.493 5.764 2.879c1.377.69 1.377 1.806 0 2.496z" class="cls-12" data-name="Path 536" transform="translate(-281.866 -369.039)"/>
                            <path id="Path_537" d="M299.905 373.919l-.584.292-6.027-3.013.584-.292z" class="cls-12" data-name="Path 537" transform="translate(-275.383 -365.798)"/>
                            <path id="Path_538" d="M294.995 374.251c-.323-.161-.323-.424 0-.583l3.821-1.913a1.469 1.469 0 0 1 1.169 0z" class="cls-12" data-name="Path 538" transform="translate(-272.851 -364.532)"/>
                            <path id="Path_539" d="M286.75 372.94l5.764 2.882a6.3 6.3 0 0 0 4.989 0c1.379-.69 1.379-1.806 0-2.5l-5.761-2.882zm10.241.643c1.092.545 1.092 1.434 0 1.982a4.994 4.994 0 0 1-3.966 0l-5.249-2.625 3.966-1.982z" class="cls-12" data-name="Path 539" transform="translate(-286.75 -366.599)"/>
                            <path id="Path_540" d="M297.094 375.324l-.584.292-6.027-3.013.584-.292z" class="cls-12" data-name="Path 540" transform="translate(-280.265 -363.356)"/>
                            <path id="Path_541" d="M292.181 375.654c-.32-.161-.32-.421 0-.583l3.823-1.91a1.47 1.47 0 0 1 1.169 0z" class="cls-12" data-name="Path 541" transform="translate(-277.734 -362.09)"/>
                        </g>
                    </g>
                    <g id="Group_203" data-name="Group 203" transform="translate(43.886)">
                        <path id="Path_542" d="M309.965 364.47l-16.314 8.159c-.6.3-.6.794 0 1.095l16.314 8.159a2.773 2.773 0 0 0 2.192 0l16.314-8.159c.608-.3.608-.794 0-1.095l-16.314-8.159a2.774 2.774 0 0 0-2.192 0zm16.769 8.142c.621.312.621.816 0 1.128l-14.544 7.272a2.834 2.834 0 0 1-2.255 0l-14.544-7.272c-.621-.312-.621-.816 0-1.128l14.544-7.272a2.835 2.835 0 0 1 2.255 0z" class="cls-12" data-name="Path 542" transform="translate(-293.197 -364.244)"/>
                        <g id="Group_202" data-name="Group 202" transform="translate(9.615 4.525)">
                            <g id="Group_200" data-name="Group 200">
                                <g id="Group_199" data-name="Group 199">
                                    <path id="Path_543" d="M301.288 371.785a1.793 1.793 0 0 1 1.108-1.215 6.1 6.1 0 0 1 2.428-.553 1.784 1.784 0 0 1 1.108-1.212 6.044 6.044 0 0 1 2.428-.556 1.778 1.778 0 0 1 1.108-1.212 4.05 4.05 0 0 1 .471-.2 14.5 14.5 0 0 0-10.868.241c-2.972 1.486-3.136 3.842-.5 5.424a2.6 2.6 0 0 1 .29-.161 6.028 6.028 0 0 1 2.427-.556z" class="cls-12" data-name="Path 543" transform="translate(-296.711 -365.898)"/>
                                </g>
                            </g>
                            <g id="Group_201" data-name="Group 201" transform="translate(1.377 .689)">
                                <path id="Path_544" d="M310.611 374.055a3.824 3.824 0 0 1-3.035 0l-.293-.145c-.17-.088-.17-.227 0-.312a.774.774 0 0 1 .624 0l.293.145a2.253 2.253 0 0 0 1.787 0c.5-.246.5-.649 0-.9l-12.644-6.322c-.172-.088-.172-.227 0-.312a.8.8 0 0 1 .624 0l12.644 6.322c.838.423.838 1.105 0 1.524z" class="cls-12" data-name="Path 544" transform="translate(-297.214 -366.15)"/>
                            </g>
                        </g>
                    </g>
                </g>
                <g id="Group_205" data-name="Group 205" transform="translate(233.722 13.062)">
                    <path id="Path_545" d="M304.862 350.971l-48.075 24.038-1.5-.748 48.075-24.038z" class="cls-12" data-name="Path 545" transform="translate(-255.291 -350.223)"/>
                    <path id="Path_546" d="M306.585 351.833L258.51 375.87l-1.5-.748 48.075-24.038z" class="cls-12" data-name="Path 546" transform="translate(-252.297 -348.726)"/>
                    <path id="Path_547" d="M308.309 352.695l-48.075 24.038-1.5-.748 48.075-24.038z" class="cls-12" data-name="Path 547" transform="translate(-249.303 -347.229)"/>
                    <path id="Path_548" d="M310.033 353.556l-48.075 24.038-1.5-.748 48.075-24.038z" class="cls-12" data-name="Path 548" transform="translate(-246.309 -345.732)"/>
                </g>
                <g id="Group_206" data-name="Group 206" transform="translate(96.936 156.22)">
                    <path id="Path_549" d="M254.882 403.278l-48.075 24.038-1.5-.748 48.075-24.038z" class="cls-12" data-name="Path 549" transform="translate(-205.311 -402.53)"/>
                    <path id="Path_550" d="M256.606 404.14l-48.075 24.037-1.5-.748 48.075-24.038z" class="cls-12" data-name="Path 550" transform="translate(-202.317 -401.033)"/>
                    <path id="Path_551" d="M258.33 405l-48.075 24.037-1.5-.748 48.075-24.037z" class="cls-12" data-name="Path 551" transform="translate(-199.324 -399.536)"/>
                    <path id="Path_552" d="M260.054 405.864L211.979 429.9l-1.5-.748 48.075-24.038z" class="cls-12" data-name="Path 552" transform="translate(-196.329 -398.039)"/>
                </g>
            </g>
        </g>
    </g>
</svg>
