<svg xmlns="http://www.w3.org/2000/svg" width="64.039" height="50" viewBox="0 0 64.039 50">
    <defs>
        <style>
            .cls-1{fill:#212a34}.cls-2{fill:#fff}
        </style>
    </defs>
    <g id="Group_235" data-name="Group 235" transform="translate(-788 -5155)">
        <g id="Group_234" data-name="Group 234" transform="translate(788 5155)">
            <g id="Group_228" data-name="Group 228" transform="translate(41.244 12.138)">
                <path id="Rectangle_134" d="M0 0h19.626v29.438H0z" class="cls-1" data-name="Rectangle 134" transform="translate(0 3.14)"/>
                <path id="Path_585" d="M885.327 462.283h-.786v-3.533H901.2v3.14h-.786v-2.354h-15.087z" class="cls-1" data-name="Path 585" transform="translate(-883.364 -458.75)"/>
                <path id="Rectangle_135" d="M0 0h.785v2.747H0z" class="cls-1" data-name="Rectangle 135" transform="translate(13.823 .393)"/>
                <path id="Rectangle_136" d="M0 0h.785v2.747H0z" class="cls-1" data-name="Rectangle 136" transform="translate(10.683 .393)"/>
                <path id="Rectangle_137" d="M0 0h.785v2.747H0z" class="cls-1" data-name="Rectangle 137" transform="translate(7.543 .393)"/>
                <path id="Rectangle_138" d="M0 0h.785v2.747H0z" class="cls-1" data-name="Rectangle 138" transform="translate(4.403 .393)"/>
            </g>
            <g id="Group_229" data-name="Group 229" transform="translate(4.348 12.138)">
                <path id="Rectangle_139" d="M0 0h19.626v29.438H0z" class="cls-1" data-name="Rectangle 139" transform="translate(0 3.14)"/>
                <path id="Path_586" d="M834.411 462.283h-.786v-3.533h16.656v3.14h-.781v-2.354h-15.089z" class="cls-1" data-name="Path 586" transform="translate(-832.447 -458.75)"/>
                <path id="Rectangle_140" d="M0 0h.785v2.747H0z" class="cls-1" data-name="Rectangle 140" transform="translate(13.823 .393)"/>
                <path id="Rectangle_141" d="M0 0h.785v2.747H0z" class="cls-1" data-name="Rectangle 141" transform="translate(10.683 .393)"/>
                <path id="Rectangle_142" d="M0 0h.785v2.747H0z" class="cls-1" data-name="Rectangle 142" transform="translate(7.543 .393)"/>
                <path id="Rectangle_143" d="M0 0h.785v2.747H0z" class="cls-1" data-name="Rectangle 143" transform="translate(4.403 .393)"/>
            </g>
            <g id="Group_230" data-name="Group 230" transform="translate(19.565)">
                <path id="Rectangle_144" d="M0 0h25v50H0z" class="cls-2" data-name="Rectangle 144" transform="translate(.435)"/>
                <path id="Path_587" d="M876.913 443.449v47.1h-22.464v-47.1h22.464m1.449-1.449H853v50h25.362v-50z" class="cls-1" data-name="Path 587" transform="translate(-853 -442)"/>
            </g>
            <g id="Group_231" data-name="Group 231" transform="translate(25.725 5.072)">
                <path id="Rectangle_145" d="M0 0h1.449v2.899H0z" class="cls-1" data-name="Rectangle 145"/>
                <path id="Rectangle_146" d="M0 0h1.449v2.899H0z" class="cls-1" data-name="Rectangle 146" transform="translate(5.797)"/>
                <path id="Rectangle_147" d="M0 0h1.449v2.899H0z" class="cls-1" data-name="Rectangle 147" transform="translate(11.594)"/>
                <path id="Rectangle_148" d="M0 0h1.449v2.899H0z" class="cls-1" data-name="Rectangle 148" transform="translate(0 6.522)"/>
                <path id="Rectangle_149" d="M0 0h1.449v2.899H0z" class="cls-1" data-name="Rectangle 149" transform="translate(5.797 6.522)"/>
                <path id="Rectangle_150" d="M0 0h1.449v2.899H0z" class="cls-1" data-name="Rectangle 150" transform="translate(11.594 6.522)"/>
                <path id="Rectangle_151" d="M0 0h1.449v2.899H0z" class="cls-1" data-name="Rectangle 151" transform="translate(0 13.043)"/>
                <path id="Rectangle_152" d="M0 0h1.449v2.899H0z" class="cls-1" data-name="Rectangle 152" transform="translate(5.797 13.043)"/>
                <path id="Rectangle_153" d="M0 0h1.449v2.899H0z" class="cls-1" data-name="Rectangle 153" transform="translate(11.594 13.043)"/>
                <path id="Rectangle_154" d="M0 0h1.449v2.899H0z" class="cls-1" data-name="Rectangle 154" transform="translate(0 19.565)"/>
                <path id="Rectangle_155" d="M0 0h1.449v2.899H0z" class="cls-1" data-name="Rectangle 155" transform="translate(5.797 19.565)"/>
                <path id="Rectangle_156" d="M0 0h1.449v2.899H0z" class="cls-1" data-name="Rectangle 156" transform="translate(11.594 19.565)"/>
                <path id="Rectangle_157" d="M0 0h1.449v2.899H0z" class="cls-1" data-name="Rectangle 157" transform="translate(0 26.087)"/>
                <path id="Rectangle_158" d="M0 0h1.449v2.899H0z" class="cls-1" data-name="Rectangle 158" transform="translate(5.797 26.087)"/>
                <path id="Rectangle_159" d="M0 0h1.449v2.899H0z" class="cls-1" data-name="Rectangle 159" transform="translate(11.594 26.087)"/>
            </g>
            <g id="Group_232" data-name="Group 232" transform="translate(0 43.991)">
                <path id="Line_21" d="M19.836 0H0" class="cls-2" data-name="Line 21" transform="translate(0 .725)"/>
                <path id="Rectangle_160" d="M0 0h19.836v1.449H0z" class="cls-1" data-name="Rectangle 160"/>
            </g>
            <g id="Group_233" data-name="Group 233" transform="translate(44.203 43.991)">
                <path id="Line_22" d="M19.836 0H0" class="cls-2" data-name="Line 22" transform="translate(0 .725)"/>
                <path id="Rectangle_161" d="M0 0h19.836v1.449H0z" class="cls-1" data-name="Rectangle 161"/>
            </g>
        </g>
    </g>
</svg>
